<?xml version="1.0" encoding="UTF-8" standalone="no"?>
<!-- Created with Inkscape (http://www.inkscape.org/) -->

<svg
   width="264.58334mm"
   height="145.52083mm"
   viewBox="0 0 264.58334 145.52083"
   version="1.1"
   id="svg5"
   xmlns="http://www.w3.org/2000/svg"
   xmlns:svg="http://www.w3.org/2000/svg">
  <defs
     id="defs2">
    <rect
       x="1206.3183"
       y="286.98637"
       width="661.34068"
       height="100.96677"
       id="rect67722" />
    <rect
       x="1182.7628"
       y="221.81348"
       width="654.35434"
       height="346.63129"
       id="rect57764" />
    <rect
       x="81.326472"
       y="-218.16982"
       width="3866.7499"
       height="384.01529"
       id="rect15669" />
    <rect
       x="186.29847"
       y="-214.38418"
       width="712.5324"
       height="188.13823"
       id="rect9041" />
    <rect
       x="81.326469"
       y="-218.16982"
       width="1379.2479"
       height="316.74988"
       id="rect15669-8" />
    <rect
       x="81.326469"
       y="-218.16982"
       width="1379.2479"
       height="316.74988"
       id="rect15669-8-2" />
    <rect
       x="81.326469"
       y="-218.16982"
       width="1379.2479"
       height="316.74988"
       id="rect15669-8-2-4" />
    <rect
       x="1182.7628"
       y="221.81348"
       width="654.35437"
       height="346.63129"
       id="rect57764-9" />
    <rect
       x="1182.7628"
       y="221.81348"
       width="654.35437"
       height="346.63129"
       id="rect57764-9-6" />
    <rect
       x="1182.7628"
       y="221.81348"
       width="654.35437"
       height="346.63129"
       id="rect57764-9-6-4" />
  </defs>
  <g
     id="layer2"
     style="display:inline">
    <g
       id="g19506"
       style="display:inline;opacity:1">
      <path
         id="path18215-4"
         style="display:inline;fill:#c51313;fill-opacity:0.90046;stroke:none;stroke-width:0.264583px;stroke-linecap:butt;stroke-linejoin:miter;stroke-opacity:1"
         d="m 109.64065,117.59738 c 0.96175,-0.16839 1.12582,-2.79883 0.15761,-2.92488 -1.3188,-0.1717 -1.25707,0.022 -1.88567,0.0279 -0.9851,-0.31939 -6.2744,3.81327 1.72805,2.89694 z m -0.89865,-2.06452 c 0.29101,0.24941 0.26242,0.87146 -0.001,1.1498 -3.13907,2.11486 -1.72817,-2.49422 0.001,-1.1498 z" />
      <path
         style="display:inline;fill:#001cbc;fill-opacity:1;stroke:none;stroke-width:0.264583px;stroke-linecap:butt;stroke-linejoin:miter;stroke-opacity:1"
         d="m 124.06557,106.65858 c 0.60861,-0.43683 0.54003,-1.59706 0.15861,-2.24185 -0.3189,-0.53909 -1.08875,-0.68339 -1.70657,-0.78641 -0.41622,-0.0694 -0.88501,-0.0666 -1.25939,0.12808 -6.97652,3.62757 -9.39689,5.36412 -15.18956,9.51577 -0.71373,0.51154 -0.93881,2.04607 -1.48294,3.03019 -0.3901,0.70556 -0.653,1.25686 -1.27455,2.05561 -0.13628,0.17513 0.17993,0.46845 0.39019,0.53941 0.39592,0.13361 0.81757,-0.19426 1.19991,-0.36284 0.93456,-0.41205 1.76082,-1.03567 2.63301,-1.56715 5.54587,-3.37946 10.42074,-5.92497 16.53129,-10.31081 z"
         id="path18005-7" />
    </g>
    <path
       style="opacity:1;fill:#81f0b3;fill-opacity:1;stroke:#000000;stroke-width:0.264583px;stroke-linecap:butt;stroke-linejoin:miter;stroke-opacity:1"
       d="m 138.20235,101.44731 c 0.1734,1.5688 -1.35337,6.86032 -2.66719,8.62114 -1.31382,1.76082 -1.35315,1.39346 -3.78046,2.4213 -2.42731,1.02784 -8.60754,2.23281 -11.02432,2.59824 -2.41678,0.36543 -2.06231,0.67932 -3.33125,0.22914 -2.43874,-2.31979 -4.38811,-5.1204 -4.0346,-6.83422 0.33327,-1.5752 1.9819,-5.66505 3.80574,-7.18507 1.82384,-1.520016 12.65713,-4.151392 14.68251,-3.817271 2.02538,0.334121 6.17618,2.397934 6.34957,3.966741 z"
       id="path22159" />
    <path
       style="opacity:1;fill:#fff420;fill-opacity:0.435574;stroke:none;stroke-width:0.264583px;stroke-linecap:butt;stroke-linejoin:miter;stroke-opacity:1"
       d="m 164.27511,50.327776 -5.22381,-3.818464 -29.4901,42.188526 6.37029,4.386043 z"
       id="path23734" />
    <g
       id="g2768"
       style="display:inline;opacity:1">
      <g
         id="g3989"
         style="stroke:#b8b8ff">
        <path
           style="display:inline;fill:none;stroke:#b8b8ff;stroke-width:0.264583px;stroke-linecap:butt;stroke-linejoin:miter;stroke-opacity:1"
           d="m 169.06185,141.96278 -0.43965,34.395"
           id="path354"
           transform="translate(32.117371,-78.687766)" />
        <path
           style="display:inline;fill:none;stroke:#b8b8ff;stroke-width:0.264583px;stroke-linecap:butt;stroke-linejoin:miter;stroke-opacity:1"
           d="M 175.58494,143.15231 167.944,179.24122"
           id="path356"
           transform="translate(32.117371,-78.687766)" />
        <path
           style="display:inline;fill:none;stroke:#b8b8ff;stroke-width:0.264583px;stroke-linecap:butt;stroke-linejoin:miter;stroke-opacity:1"
           d="m 182.476,146.07191 -18.64239,27.26731 -0.27534,-0.37494 0.67565,0.60396 -0.79492,-0.0882"
           id="path358"
           transform="translate(32.117371,-78.687766)" />
        <path
           style="display:inline;fill:none;stroke:#b8b8ff;stroke-width:0.264583px;stroke-linecap:butt;stroke-linejoin:miter;stroke-opacity:1"
           d="m 188.27268,149.44511 -23.19434,24.41053"
           id="path360"
           transform="translate(32.117371,-78.687766)" />
        <path
           style="display:inline;fill:none;stroke:#b8b8ff;stroke-width:0.264583px;stroke-linecap:butt;stroke-linejoin:miter;stroke-opacity:1"
           d="m 193.60687,154.45258 -26.63289,25.4719"
           id="path362"
           transform="translate(32.117371,-78.687766)" />
        <path
           style="display:inline;fill:none;stroke:#b8b8ff;stroke-width:0.264583px;stroke-linecap:butt;stroke-linejoin:miter;stroke-opacity:1"
           d="M 196.83353,160.55188 168.08675,178.629"
           id="path364"
           transform="translate(32.117371,-78.687766)" />
        <path
           style="display:inline;fill:none;stroke:#b8b8ff;stroke-width:0.264583px;stroke-linecap:butt;stroke-linejoin:miter;stroke-opacity:1"
           d="m 199.36676,167.06482 -34.43624,6.81683"
           id="path366"
           transform="translate(32.117371,-78.687766)" />
        <path
           style="display:inline;fill:none;stroke:#b8b8ff;stroke-width:0.264583px;stroke-linecap:butt;stroke-linejoin:miter;stroke-opacity:1"
           d="m 202.50269,173.82265 -36.93712,0.83362"
           id="path368"
           transform="translate(32.117371,-78.687766)" />
        <path
           style="display:inline;fill:none;stroke:#b8b8ff;stroke-width:0.264583px;stroke-linecap:butt;stroke-linejoin:miter;stroke-opacity:1"
           d="m 203.83116,181.02203 -37.70603,-0.93831"
           id="path370"
           transform="translate(32.117371,-78.687766)" />
        <path
           style="display:inline;fill:none;stroke:#b8b8ff;stroke-width:0.264583px;stroke-linecap:butt;stroke-linejoin:miter;stroke-opacity:1"
           d="m 201.72806,187.80079 -38.32205,-8.21318"
           id="path372"
           transform="translate(32.117371,-78.687766)" />
        <path
           style="display:inline;fill:none;stroke:#b8b8ff;stroke-width:0.264583px;stroke-linecap:butt;stroke-linejoin:miter;stroke-opacity:1"
           d="m 198.0294,194.70263 -30.44448,-20.1301"
           id="path374"
           transform="translate(32.117371,-78.687766)" />
        <path
           style="display:inline;fill:none;stroke:#b8b8ff;stroke-width:0.264583px;stroke-linecap:butt;stroke-linejoin:miter;stroke-opacity:1"
           d="M 194.17214,200.47457 166.86549,175.24882"
           id="path376"
           transform="translate(32.117371,-78.687766)" />
        <path
           style="display:inline;fill:none;stroke:#b8b8ff;stroke-width:0.264583px;stroke-linecap:butt;stroke-linejoin:miter;stroke-opacity:1"
           d="M 189.46729,205.81638 163.19031,179.6428"
           id="path378"
           transform="translate(32.117371,-78.687766)" />
        <path
           style="display:inline;fill:none;stroke:#b8b8ff;stroke-width:0.264583px;stroke-linecap:butt;stroke-linejoin:miter;stroke-opacity:1"
           d="M 183.09646,209.44969 164.10387,179.85851"
           id="path380"
           transform="translate(32.117371,-78.687766)" />
        <path
           style="display:inline;fill:none;stroke:#b8b8ff;stroke-width:0.264583px;stroke-linecap:butt;stroke-linejoin:miter;stroke-opacity:1"
           d="m 176.3583,212.26397 -7.82302,-35.56741"
           id="path382"
           transform="translate(32.117371,-78.687766)" />
        <path
           style="display:inline;fill:none;stroke:#b8b8ff;stroke-width:0.264583px;stroke-linecap:butt;stroke-linejoin:miter;stroke-opacity:1"
           d="M 169.16082,213.46049 168.2517,178.1976"
           id="path384"
           transform="translate(32.117371,-78.687766)" />
        <path
           style="display:inline;fill:none;stroke:#b8b8ff;stroke-width:0.264583px;stroke-linecap:butt;stroke-linejoin:miter;stroke-opacity:1"
           d="M 162.31481,213.06651 161.97793,178.1608"
           id="path386"
           transform="translate(32.117371,-78.687766)" />
        <path
           style="display:inline;fill:none;stroke:#b8b8ff;stroke-width:0.264583px;stroke-linecap:butt;stroke-linejoin:miter;stroke-opacity:1"
           d="m 155.11416,212.21449 7.15814,-33.47573"
           id="path388"
           transform="translate(32.117371,-78.687766)" />
        <path
           style="display:inline;fill:none;stroke:#b8b8ff;stroke-width:0.264583px;stroke-linecap:butt;stroke-linejoin:miter;stroke-opacity:1"
           d="m 148.31002,208.86666 19.27554,-29.36597"
           id="path390"
           transform="translate(32.117371,-78.687766)" />
        <path
           style="display:inline;fill:none;stroke:#b8b8ff;stroke-width:0.264583px;stroke-linecap:butt;stroke-linejoin:miter;stroke-opacity:1"
           d="m 142.37376,204.98021 24.23987,-24.73978"
           id="path392"
           transform="translate(32.117371,-78.687766)" />
        <path
           style="display:inline;fill:none;stroke:#b8b8ff;stroke-width:0.264583px;stroke-linecap:butt;stroke-linejoin:miter;stroke-opacity:1"
           d="m 138.15678,199.51026 22.8581,-22.87904"
           id="path394"
           transform="translate(32.117371,-78.687766)" />
        <path
           style="display:inline;fill:none;stroke:#b8b8ff;stroke-width:0.264583px;stroke-linecap:butt;stroke-linejoin:miter;stroke-opacity:1"
           d="m 133.91823,193.72309 27.35106,-16.88822"
           id="path396"
           transform="translate(32.117371,-78.687766)" />
        <path
           style="display:inline;fill:none;stroke:#b8b8ff;stroke-width:0.264583px;stroke-linecap:butt;stroke-linejoin:miter;stroke-opacity:1"
           d="m 130.22718,187.69992 35.31174,-7.25204"
           id="path398"
           transform="translate(32.117371,-78.687766)" />
        <path
           style="display:inline;fill:none;stroke:#b8b8ff;stroke-width:0.264583px;stroke-linecap:butt;stroke-linejoin:miter;stroke-opacity:1"
           d="m 128.716,180.60204 36.89398,-0.54179 0.16939,-0.18525 -0.0698,0.40222 0.25821,-0.38128"
           id="path400"
           transform="translate(32.117371,-78.687766)" />
        <path
           style="display:inline;fill:none;stroke:#b8b8ff;stroke-width:0.264583px;stroke-linecap:butt;stroke-linejoin:miter;stroke-opacity:1"
           d="m 129.75771,173.43502 36.78042,0.60904"
           id="path404"
           transform="translate(32.117371,-78.687766)" />
        <path
           style="display:inline;fill:none;stroke:#b8b8ff;stroke-width:0.264583px;stroke-linecap:butt;stroke-linejoin:miter;stroke-opacity:1"
           d="m 131.17818,166.68226 32.62815,7.56101"
           id="path406"
           transform="translate(32.117371,-78.687766)" />
        <path
           style="display:inline;fill:none;stroke:#b8b8ff;stroke-width:0.264583px;stroke-linecap:butt;stroke-linejoin:miter;stroke-opacity:1"
           d="M 133.82878,160.42753 162.9321,179.193"
           id="path408"
           transform="translate(32.117371,-78.687766)" />
        <path
           style="display:inline;fill:none;stroke:#b8b8ff;stroke-width:0.264583px;stroke-linecap:butt;stroke-linejoin:miter;stroke-opacity:1"
           d="m 137.81293,154.21277 25.3723,24.45557"
           id="path410"
           transform="translate(32.117371,-78.687766)" />
        <path
           style="display:inline;fill:none;stroke:#b8b8ff;stroke-width:0.264583px;stroke-linecap:butt;stroke-linejoin:miter;stroke-opacity:1"
           d="m 141.82245,149.4413 25.88619,25.44527"
           id="path412"
           transform="translate(32.117371,-78.687766)" />
        <path
           style="display:inline;fill:none;stroke:#b8b8ff;stroke-width:0.264583px;stroke-linecap:butt;stroke-linejoin:miter;stroke-opacity:1"
           d="m 154.77474,141.65699 7.38464,37.16805"
           id="path414"
           transform="translate(32.117371,-78.687766)" />
        <path
           style="display:inline;fill:none;stroke:#b8b8ff;stroke-width:0.264583px;stroke-linecap:butt;stroke-linejoin:miter;stroke-opacity:1"
           d="m 162.19871,140.71551 1.29358,38.40136"
           id="path416"
           transform="translate(32.117371,-78.687766)" />
      </g>
      <circle
         style="display:inline;fill:#000000;stroke-width:0.314996"
         id="path520"
         cx="165.67058"
         cy="177.313"
         r="3.7916028"
         transform="translate(32.117371,-78.687766)" />
      <rect
         style="display:inline;fill:#81f0b3;stroke-width:0.264583"
         id="rect642"
         width="1.1050795"
         height="3.975198"
         x="164.7392"
         y="141.03636"
         transform="translate(32.117371,-78.687766)" />
      <path
         style="display:inline;fill:#001cbc;fill-opacity:1;stroke:none;stroke-width:0.264583px;stroke-linecap:butt;stroke-linejoin:miter;stroke-opacity:1"
         d="m 164.62825,144.1678 1.38098,-0.0286 0.008,0.8716 c 0,0 -0.40221,0.26265 -0.68019,0.26134 -0.27798,-0.001 -0.73376,-0.28024 -0.73376,-0.28024 z"
         id="path699"
         transform="translate(32.117371,-78.687766)" />
      <path
         id="path43"
         style="fill:#c51313;stroke-width:1.19981"
         d="M 748.84766,216.62305 A 156.48312,156.48312 0 0 0 592.36328,373.10742 156.48312,156.48312 0 0 0 748.84766,529.58984 156.48312,156.48312 0 0 0 905.33008,373.10742 156.48312,156.48312 0 0 0 748.84766,216.62305 Z m 0,21.07422 A 135.41019,135.41019 0 0 1 884.25781,373.10742 135.41019,135.41019 0 0 1 748.84766,508.51758 135.41019,135.41019 0 0 1 613.4375,373.10742 135.41019,135.41019 0 0 1 748.84766,237.69727 Z"
         transform="scale(0.26458333)" />
      <g
         id="g3902"
         style="stroke:#b8b8ff">
        <path
           style="fill:#b8b8ff;stroke:#b8b8ff;stroke-width:0.264583px;stroke-linecap:butt;stroke-linejoin:miter;stroke-opacity:1"
           d="m 49.098456,66.974881 21.066921,30.508037 v 0 l -0.315111,-0.341185"
           id="path2216" />
        <path
           style="fill:none;stroke:#b8b8ff;stroke-width:0.264583px;stroke-linecap:butt;stroke-linejoin:miter;stroke-opacity:1"
           d="M 70.515164,60.710178 69.868029,97.971686"
           id="path354-7" />
        <path
           style="fill:none;stroke:#b8b8ff;stroke-width:0.264583px;stroke-linecap:butt;stroke-linejoin:miter;stroke-opacity:1"
           d="M 77.587478,61.288349 69.189829,100.85512"
           id="path356-5" />
        <path
           style="fill:none;stroke:#b8b8ff;stroke-width:0.264583px;stroke-linecap:butt;stroke-linejoin:miter;stroke-opacity:1"
           d="m 85.537599,64.579091 -20.45816,30.374035 -0.27534,-0.37494 0.67565,0.60396 -0.79492,-0.0882"
           id="path358-3" />
        <path
           style="fill:none;stroke:#b8b8ff;stroke-width:0.264583px;stroke-linecap:butt;stroke-linejoin:miter;stroke-opacity:1"
           d="M 90.795595,69.927281 66.324169,95.469546"
           id="path360-5" />
        <path
           style="fill:none;stroke:#b8b8ff;stroke-width:0.264583px;stroke-linecap:butt;stroke-linejoin:miter;stroke-opacity:1"
           d="M 94.852699,76.066486 68.219809,101.53838"
           id="path362-6" />
        <path
           style="fill:none;stroke:#b8b8ff;stroke-width:0.264583px;stroke-linecap:butt;stroke-linejoin:miter;stroke-opacity:1"
           d="M 100.22023,80.818799 69.332579,100.2429"
           id="path364-2" />
        <path
           style="fill:none;stroke:#b8b8ff;stroke-width:0.264583px;stroke-linecap:butt;stroke-linejoin:miter;stroke-opacity:1"
           d="m 102.50991,88.069586 -36.333561,7.42597"
           id="path366-9" />
        <path
           style="fill:none;stroke:#b8b8ff;stroke-width:0.264583px;stroke-linecap:butt;stroke-linejoin:miter;stroke-opacity:1"
           d="m 103.74852,95.436556 -36.937121,0.83362"
           id="path368-1" />
        <path
           style="fill:none;stroke:#b8b8ff;stroke-width:0.264583px;stroke-linecap:butt;stroke-linejoin:miter;stroke-opacity:1"
           d="M 105.07699,102.63593 67.370959,101.69762"
           id="path370-2" />
        <path
           style="fill:none;stroke:#b8b8ff;stroke-width:0.264583px;stroke-linecap:butt;stroke-linejoin:miter;stroke-opacity:1"
           d="M 102.97389,109.41469 64.651839,101.20151"
           id="path372-7" />
        <path
           style="fill:none;stroke:#b8b8ff;stroke-width:0.264583px;stroke-linecap:butt;stroke-linejoin:miter;stroke-opacity:1"
           d="M 99.275229,116.31653 68.830749,96.186436"
           id="path374-0" />
        <path
           style="fill:none;stroke:#b8b8ff;stroke-width:0.264583px;stroke-linecap:butt;stroke-linejoin:miter;stroke-opacity:1"
           d="M 95.417969,122.08847 68.111319,96.862726"
           id="path376-9" />
        <path
           style="fill:none;stroke:#b8b8ff;stroke-width:0.264583px;stroke-linecap:butt;stroke-linejoin:miter;stroke-opacity:1"
           d="M 90.713119,127.43028 64.436139,101.2567"
           id="path378-3" />
        <path
           style="fill:none;stroke:#b8b8ff;stroke-width:0.264583px;stroke-linecap:butt;stroke-linejoin:miter;stroke-opacity:1"
           d="M 84.342289,131.06359 65.349699,101.47241"
           id="path380-6" />
        <path
           style="fill:none;stroke:#b8b8ff;stroke-width:0.264583px;stroke-linecap:butt;stroke-linejoin:miter;stroke-opacity:1"
           d="M 77.604129,133.87787 69.781109,98.310466"
           id="path382-0" />
        <path
           style="fill:none;stroke:#b8b8ff;stroke-width:0.264583px;stroke-linecap:butt;stroke-linejoin:miter;stroke-opacity:1"
           d="M 70.406649,135.07439 69.497529,99.811503"
           id="path384-6" />
        <path
           style="fill:none;stroke:#b8b8ff;stroke-width:0.264583px;stroke-linecap:butt;stroke-linejoin:miter;stroke-opacity:1"
           d="M 63.560639,134.68041 63.223759,99.774703"
           id="path386-2" />
        <path
           style="fill:none;stroke:#b8b8ff;stroke-width:0.264583px;stroke-linecap:butt;stroke-linejoin:miter;stroke-opacity:1"
           d="m 56.359989,133.82839 7.15814,-33.47573"
           id="path388-6" />
        <path
           style="fill:none;stroke:#b8b8ff;stroke-width:0.264583px;stroke-linecap:butt;stroke-linejoin:miter;stroke-opacity:1"
           d="m 49.555849,130.48056 19.27554,-29.36597"
           id="path390-1" />
        <path
           style="fill:none;stroke:#b8b8ff;stroke-width:0.264583px;stroke-linecap:butt;stroke-linejoin:miter;stroke-opacity:1"
           d="m 43.619589,126.59411 24.23987,-24.73978"
           id="path392-8" />
        <path
           style="fill:none;stroke:#b8b8ff;stroke-width:0.264583px;stroke-linecap:butt;stroke-linejoin:miter;stroke-opacity:1"
           d="M 38.098339,122.5588 62.260709,98.245126"
           id="path394-7" />
        <path
           style="fill:none;stroke:#b8b8ff;stroke-width:0.264583px;stroke-linecap:butt;stroke-linejoin:miter;stroke-opacity:1"
           d="M 35.164059,115.33699 62.515119,98.448776"
           id="path396-9" />
        <path
           style="fill:none;stroke:#b8b8ff;stroke-width:0.264583px;stroke-linecap:butt;stroke-linejoin:miter;stroke-opacity:1"
           d="m 31.473009,109.31382 35.31174,-7.25204"
           id="path398-2" />
        <path
           style="fill:none;stroke:#b8b8ff;stroke-width:0.264583px;stroke-linecap:butt;stroke-linejoin:miter;stroke-opacity:1"
           d="m 29.961829,102.21594 36.89398,-0.54179 0.16939,-0.18525 -0.0698,0.40222 0.25821,-0.38128"
           id="path400-0" />
        <path
           style="fill:none;stroke:#b8b8ff;stroke-width:0.264583px;stroke-linecap:butt;stroke-linejoin:miter;stroke-opacity:1"
           d="m 31.003539,95.048926 36.78042,0.60904"
           id="path404-2" />
        <path
           style="fill:none;stroke:#b8b8ff;stroke-width:0.264583px;stroke-linecap:butt;stroke-linejoin:miter;stroke-opacity:1"
           d="m 32.424009,88.296166 32.62815,7.56101"
           id="path406-3" />
        <path
           style="fill:none;stroke:#b8b8ff;stroke-width:0.264583px;stroke-linecap:butt;stroke-linejoin:miter;stroke-opacity:1"
           d="M 35.074609,82.041436 64.177929,100.8069"
           id="path408-7" />
        <path
           style="fill:none;stroke:#b8b8ff;stroke-width:0.264583px;stroke-linecap:butt;stroke-linejoin:miter;stroke-opacity:1"
           d="m 39.058759,75.826676 25.3723,24.455564"
           id="path410-5" />
        <path
           style="fill:none;stroke:#b8b8ff;stroke-width:0.264583px;stroke-linecap:butt;stroke-linejoin:miter;stroke-opacity:1"
           d="m 43.068279,71.055206 25.88619,25.44527"
           id="path412-9" />
        <path
           style="fill:none;stroke:#b8b8ff;stroke-width:0.264583px;stroke-linecap:butt;stroke-linejoin:miter;stroke-opacity:1"
           d="m 56.020569,63.270896 7.38464,37.168044"
           id="path414-2" />
        <path
           style="fill:none;stroke:#b8b8ff;stroke-width:0.264583px;stroke-linecap:butt;stroke-linejoin:miter;stroke-opacity:1"
           d="m 63.444539,62.329416 1.29358,38.401354"
           id="path416-2" />
      </g>
      <circle
         style="fill:#000000;stroke-width:0.314996"
         id="path520-8"
         cx="66.916412"
         cy="98.92691"
         r="3.7916028" />
      <rect
         style="fill:#81f0b3;stroke-width:0.264583"
         id="rect642-9"
         width="1.1050795"
         height="3.975198"
         x="65.985031"
         y="62.650269" />
      <path
         style="fill:#001cbc;fill-opacity:1;stroke:none;stroke-width:0.264583px;stroke-linecap:butt;stroke-linejoin:miter;stroke-opacity:1"
         d="m 65.874079,65.781706 1.38098,-0.0286 0.008,0.8716 c 0,0 -0.40221,0.26265 -0.68019,0.26134 -0.27798,-10e-4 -0.73376,-0.28024 -0.73376,-0.28024 z"
         id="path699-7" />
      <path
         id="path43-3"
         style="fill:#c51313;stroke-width:0.31745"
         d="M 67.261069,57.616515 A 41.402825,41.402825 0 0 0 25.857909,99.019671 41.402825,41.402825 0 0 0 67.261069,140.4223 41.402825,41.402825 0 0 0 108.66371,99.019671 41.402825,41.402825 0 0 0 67.261069,57.616515 Z m 0,5.575887 A 35.827279,35.827279 0 0 1 103.08834,99.019671 35.827279,35.827279 0 0 1 67.261069,134.84694 35.827279,35.827279 0 0 1 31.433799,99.019671 35.827279,35.827279 0 0 1 67.261069,63.192402 Z" />
    </g>
    <g
       id="g14025"
       style="display:inline;opacity:1">
      <path
         style="display:inline;fill:none;stroke:#b8b8ff;stroke-width:0.565;stroke-linecap:butt;stroke-linejoin:miter;stroke-miterlimit:4;stroke-dasharray:none;stroke-opacity:1"
         d="m 79.22744,93.085468 c 9.477235,-0.462251 7.19002,5.653757 11.374799,7.343792 6.58587,2.65973 13.835401,3.44971 20.906801,4.11535 2.37105,0.22319 4.98368,0.95389 7.14444,-0.0475 9.73475,-4.511482 14.36889,-15.961533 20.96887,-24.420782 8.19133,-10.498881 14.215,-22.668639 23.06909,-32.614964 3.17283,-3.564217 7.8156,-5.72677 10.65149,-9.564503 1.406,-1.902705 2.37141,-4.154894 2.98236,-6.440472 0.22166,-0.829267 0.2282,-2.565018 0.2282,-2.565018"
         id="path14769" />
      <path
         id="path1034"
         style="fill:#81f0b3;fill-opacity:1;stroke:none;stroke-width:0.264583px;stroke-linecap:butt;stroke-linejoin:miter;stroke-opacity:1"
         d="m 198.13933,87.444791 c -0.34355,-0.0031 -0.69211,0.02816 -1.03043,0.04857 -0.87099,0.05256 -1.75193,0.172554 -2.57814,0.453203 -1.24457,0.422764 -2.43053,1.05433 -3.49591,1.82418 -0.78672,0.568486 -1.48727,1.266931 -2.08928,2.028298 -0.73358,0.927762 -1.4038,1.939507 -1.81798,3.04736 -0.26173,0.700069 -0.37395,1.459524 -0.39635,2.206583 -0.0316,1.051271 0.18743,2.097974 0.37052,3.133665 0.116,0.65624 0.0357,1.43212 0.46043,1.94562 0.16496,0.19942 0.5519,0.11071 0.70849,0.31677 0.2839,0.37359 0.0105,0.96738 0.2098,1.39216 0.53516,1.14069 1.40245,2.22935 2.51406,2.82257 0.29055,0.15501 0.67468,0.009 0.97875,0.13539 0.14075,0.0586 0.26015,0.1652 0.3638,0.27699 0.14957,0.16131 0.17579,0.36427 0.35916,0.55345 0.51354,0.52981 2.56342,0.8832 3.98993,1.04232 0.32607,0.0364 0.60745,-0.19613 0.92243,-0.23203 0.10198,-0.0116 0.20628,-0.008 0.30799,0.006 0.21757,0.0296 0.4195,0.14421 0.6382,0.16381 0.59827,0.0536 1.21354,0.0113 1.79731,-0.13022 0.82207,-0.19928 1.63784,-0.5154 2.33371,-0.99632 0.29512,-0.20396 0.44874,-0.57413 0.74517,-0.77618 0.24985,-0.1703 0.5973,-0.16365 0.83871,-0.34572 1.04076,-0.78492 1.94502,-1.8558 2.42569,-3.06751 0.0824,-0.20768 -0.0103,-0.45476 0.0574,-0.66766 0.0781,-0.24564 0.22631,-0.46909 0.39068,-0.66766 0.14899,-0.18 0.47583,-0.23322 0.52813,-0.46095 0.35005,-1.522892 0.55918,-2.809066 0.58498,-4.245227 0.006,-0.308467 -0.31144,-0.542636 -0.38034,-0.843359 -0.0895,-0.390546 0.0753,-0.815602 -0.0326,-1.201478 -0.0926,-0.331512 -0.35202,-0.592114 -0.51159,-0.897102 -0.41212,-0.787635 -0.52096,-1.777762 -1.14981,-2.406054 -0.29024,-0.289992 -0.8192,-0.241819 -1.11104,-0.530202 -0.31373,-0.310007 -0.28732,-0.860591 -0.58394,-1.187008 -0.83106,-0.914558 -1.98566,-1.547026 -3.15537,-1.945616 -0.49703,-0.169402 -1.07858,0.02887 -1.56682,-0.164333 -0.24338,-0.0963 -0.37955,-0.384836 -0.62529,-0.474905 -0.31823,-0.11665 -0.65691,-0.153996 -1.00045,-0.157097 z m -1.36013,0.328662 c 0.15439,-0.0019 0.34643,0.134237 0.40979,0.270267 0.1208,0.259252 -0.0337,0.6243 -0.23874,0.823722 -0.26236,0.255193 -0.83589,0.564036 -1.06298,0.276987 -0.14079,-0.177946 0.5941,-1.199105 0.77462,-1.33377 0.0337,-0.02511 0.0741,-0.03669 0.11731,-0.03721 z m 2.2071,0.04909 c 0.0295,-0.0011 0.058,5.29e-4 0.0853,0.0041 0.24266,0.03223 0.53222,0.389432 0.51263,0.525549 -0.0269,0.186767 -0.63381,0.448654 -0.81132,0.505394 -0.24921,0.07967 -0.60538,-0.306488 -0.6103,-0.493508 -0.006,-0.21844 0.47522,-0.53049 0.82372,-0.541571 z m -3.47472,0.288356 c 0.10463,-1.66e-4 0.19702,0.03121 0.23926,0.11162 0.0595,0.113236 -0.19277,1.145588 -0.34055,1.313098 -0.14141,0.160293 -0.37742,0.327065 -0.58291,0.268203 -0.0849,-0.02455 -0.13416,-0.134102 -0.14572,-0.221695 -0.0619,-0.469659 0.0648,-1.068675 0.44648,-1.349269 0.0941,-0.06913 0.24892,-0.121742 0.38344,-0.121957 z m 4.42608,0.414444 c 0.16878,-2.65e-4 0.35376,0.01442 0.38189,0.151413 0.0779,0.379058 -0.52765,0.812919 -0.90485,0.726569 -0.13708,-0.0314 -0.19561,-0.240937 -0.18139,-0.380854 0.0162,-0.159234 0.43442,-0.496986 0.54777,-0.495578 0.0462,5.29e-4 0.10033,-0.0013 0.15658,-0.0016 z m 1.34152,0.07235 c 0.0148,4.8e-5 0.0297,7.94e-4 0.0445,0.0016 0.2072,0.01172 0.52886,0.185407 0.48627,0.388607 -0.0262,0.125211 -0.87803,0.760227 -1.09864,0.7953 -0.2111,0.03356 -0.49863,0.01188 -0.6196,-0.16433 -0.0498,-0.07297 -0.0184,-0.188645 0.0284,-0.263552 0.24343,-0.38904 0.70076,-0.759076 1.1591,-0.757576 z m -6.97218,0.301792 c 0.0345,-7.94e-4 0.0671,0.0088 0.0966,0.03255 0.30139,0.242713 0.11071,0.962774 -0.23513,1.136367 -0.1257,0.06307 -0.3048,-0.06134 -0.38292,-0.178284 -0.0889,-0.133101 0.0186,-0.659614 0.10697,-0.730705 0.11471,-0.09238 0.27899,-0.256339 0.41444,-0.259932 z m 3.55276,0.03462 c 0.2024,-0.0019 0.3787,0.05259 0.4904,0.209807 0.24598,0.346215 -0.21122,0.844867 -0.46353,1.18649 -0.42384,0.573865 -1.16208,0.836252 -1.67639,1.330668 -0.79559,0.764831 -1.69729,2.112407 -2.15904,2.509925 -0.2236,0.192485 -0.56808,-0.325138 -0.63975,-0.611333 -0.12398,-0.49503 0.24317,-1.001075 0.47697,-1.454692 0.32698,-0.634386 0.76152,-1.222817 1.26969,-1.723925 0.48143,-0.474752 1.01014,-0.961855 1.65003,-1.18029 0.3042,-0.103833 0.71427,-0.263498 1.05162,-0.26665 z m -4.68499,0.07338 c 0.19774,-5.29e-4 0.40831,0.06556 0.45527,0.142626 0.0982,0.161131 -0.20363,0.749112 -0.30437,0.905888 -0.14144,0.220105 -0.66158,0.149345 -0.78445,0.0083 -0.15568,-0.178747 0.0601,-0.806796 0.35863,-0.993222 0.0714,-0.04457 0.17134,-0.06328 0.27492,-0.06356 z m 9.58908,0.242363 c 0.004,1.4e-5 0.008,2.65e-4 0.0114,5.3e-4 0.19182,0.0095 0.3062,0.329308 0.25787,0.515212 -0.0719,0.27682 -0.42393,0.459941 -0.709,0.483177 -0.36479,0.02973 -1.00295,-0.0976 -0.99529,-0.463539 0.005,-0.223306 1.18364,-0.536231 1.43506,-0.535366 z m -10.79469,0.405144 c 0.11428,-0.0016 0.23681,0.03304 0.31264,0.09198 0.22583,0.175504 0.25517,0.571296 0.16382,0.842328 -0.11692,0.346826 -0.48598,0.882925 -0.81908,0.731221 -0.20649,-0.09404 -0.019,-1.337728 0.0801,-1.53996 0.0423,-0.08622 0.14824,-0.124074 0.26252,-0.125571 z m 11.68042,0.481107 c 0.22025,-0.0054 0.46623,0.04541 0.60927,0.157094 0.19294,0.150651 0.262,0.605698 0.17621,0.713137 -0.11773,0.147452 -0.77368,0.06574 -0.95549,0.02479 -0.25523,-0.05748 -0.36692,-0.571076 -0.27647,-0.73484 0.0555,-0.100502 0.23958,-0.155112 0.44648,-0.160195 z m -10.05106,0.0078 c 0.074,-7.94e-4 0.14727,0.01516 0.21859,0.05219 0.37691,0.195723 0.19821,0.84849 0.1297,1.267621 -0.11508,0.704075 -0.65233,1.274546 -0.88418,1.949236 -0.35864,1.043699 -0.5453,2.654443 -0.77463,3.218926 -0.11105,0.273339 -0.65409,-0.03028 -0.84853,-0.252182 -0.33631,-0.383821 -0.24069,-1.001726 -0.23977,-1.512051 0.001,-0.713695 0.11928,-1.435725 0.34261,-2.113566 0.21158,-0.642186 0.45957,-1.316506 0.92914,-1.802993 0.30137,-0.312205 0.72719,-0.803598 1.12707,-0.807185 z m 7.14995,0.0863 c 0.43023,-0.0049 0.85888,0.03615 1.25418,0.18552 0.48109,0.181798 1.26251,0.424477 1.22525,0.937409 -0.0308,0.423584 -0.70104,0.516829 -1.11311,0.619601 -0.69221,0.172638 -1.42854,-0.0946 -2.13992,-0.04083 -1.10046,0.08319 -2.65369,0.548169 -3.26285,0.560689 -0.29497,0.0061 -0.23083,-0.612696 -0.10387,-0.879015 0.2196,-0.460655 0.82487,-0.617125 1.29398,-0.818039 0.65606,-0.280977 1.36596,-0.458057 2.07687,-0.520898 0.25257,-0.02233 0.51133,-0.04152 0.76947,-0.04444 z m -9.77977,0.299725 c 0.0415,-0.0011 0.0807,0.0093 0.11524,0.03359 0.10465,0.07357 0.35162,1.106929 0.29662,1.323433 -0.0526,0.207171 -0.18615,0.462917 -0.39584,0.504362 -0.0867,0.01691 -0.18071,-0.05758 -0.23099,-0.130226 -0.26954,-0.389572 -0.43059,-0.980657 -0.21911,-1.404564 0.0739,-0.147974 0.27114,-0.322347 0.43408,-0.326594 z m 13.40642,0.706932 c 0.065,-0.0013 0.11681,0.005 0.14108,0.01963 0.15821,0.09554 0.44872,0.225538 0.3886,0.402042 -0.12477,0.366302 -0.8672,0.433909 -1.14876,0.168465 -0.10234,-0.09647 -0.0464,-0.307192 0.0367,-0.420645 0.071,-0.09683 0.3875,-0.165782 0.5824,-0.1695 z m -14.20689,0.569476 c 0.0132,-0.0011 0.0271,1.49e-4 0.0413,0.0031 0.37896,0.07834 0.53797,0.806455 0.30954,1.118796 -0.083,0.113501 -0.29879,0.0844 -0.42168,0.01603 -0.13986,-0.07783 -0.28486,-0.595617 -0.23875,-0.699183 0.0693,-0.155673 0.1537,-0.426916 0.30954,-0.438732 z m 15.01201,0.131258 c 0.22864,-0.0042 0.45072,0.04333 0.62942,0.162263 0.17278,0.114996 0.36227,0.427726 0.22272,0.581361 -0.086,0.09471 -1.1423,0.211159 -1.3503,0.129707 -0.19903,-0.07794 -0.43605,-0.242054 -0.45114,-0.455269 -0.006,-0.08817 0.0798,-0.172026 0.15813,-0.212907 0.2297,-0.119817 0.51522,-0.200107 0.79117,-0.205155 z m -4.37803,0.214458 c 0.3103,-0.0043 0.64457,0.0714 0.94516,0.109553 0.70801,0.08987 1.40978,0.296802 2.05466,0.602546 0.61095,0.289661 1.24939,0.619321 1.6738,1.145667 0.32282,0.400352 0.87371,1.005388 0.58187,1.428853 -0.24099,0.349692 -0.86644,0.09107 -1.27382,-0.02894 -0.68434,-0.201602 -1.18349,-0.80499 -1.82418,-1.118796 -0.9911,-0.485436 -2.56636,-0.870773 -3.098,-1.168405 -0.25744,-0.144124 0.1112,-0.645414 0.35553,-0.810803 0.17169,-0.116213 0.37267,-0.15671 0.58498,-0.159678 z m -11.27786,0.183967 c 0.0406,2.65e-4 0.0741,0.0072 0.0961,0.02066 0.16093,0.09853 0.16121,0.759164 0.14315,0.944647 -0.0254,0.260398 -0.5208,0.435282 -0.69453,0.365869 -0.22012,-0.08796 -0.31485,-0.745326 -0.13436,-1.047483 0.10199,-0.170746 0.41351,-0.285337 0.58963,-0.283702 z m 15.87913,0.731221 c 0.37882,-0.0058 1.1785,0.230791 1.3286,0.329179 0.16063,0.105291 0.0976,0.438793 -0.0382,0.574643 -0.20218,0.202295 -0.59869,0.182171 -0.85628,0.05788 -0.32963,-0.159063 -0.8156,-0.591625 -0.62373,-0.903306 0.0241,-0.03925 0.0931,-0.05691 0.18965,-0.05839 z m -15.34273,0.404109 c 0.39604,0.01905 0.56517,0.644982 0.71313,1.02888 0.25657,0.665686 0.0818,1.429205 0.22273,2.128551 0.21807,1.081839 0.87064,2.565818 0.95808,3.168798 0.0423,0.291986 -0.57945,0.304556 -0.85938,0.211356 -0.48419,-0.161196 -0.71385,-0.742589 -0.971,-1.18339 -0.35963,-0.616466 -0.62266,-1.299014 -0.77256,-1.996776 -0.14203,-0.661056 -0.26884,-1.368607 -0.10956,-2.025716 0.12118,-0.499811 0.26618,-1.304996 0.7798,-1.331185 0.0133,-7.93e-4 0.026,-0.0011 0.0388,-5.29e-4 z m -1.64641,0.38654 c 0.0195,-7.94e-4 0.0379,2.36e-4 0.0558,0.0026 0.28357,0.03729 0.50873,0.363852 0.56689,0.643887 0.0744,0.358355 0.0272,1.007436 -0.33693,1.044898 -0.22571,0.02323 -0.69284,-1.144826 -0.70952,-1.369425 -0.0129,-0.173569 0.23541,-0.315516 0.42375,-0.321945 z m 14.57482,0.864031 c 0.01,-2.01e-4 0.0192,-1.9e-4 0.0284,0 0.51021,0.01056 0.90178,0.497991 1.27796,0.842841 0.52609,0.48228 0.97977,1.056405 1.32963,1.678451 0.33146,0.589322 0.66237,1.227407 0.70487,1.902211 0.0323,0.513273 0.13244,1.325601 -0.35037,1.502751 -0.39871,0.14629 -0.75993,-0.42639 -1.02319,-0.759645 -0.44223,-0.559819 -0.50105,-1.341112 -0.84284,-1.967323 -0.52873,-0.968697 -1.59203,-2.192962 -1.85415,-2.742983 -0.12296,-0.258021 0.42699,-0.45009 0.72967,-0.456303 z m 3.71088,0.06201 c 0.2471,-0.0045 0.69262,0.324591 0.7829,0.624768 0.0705,0.234418 -0.13608,0.64552 -0.2682,0.683678 -0.18128,0.05237 -0.6695,-0.393321 -0.79427,-0.531749 -0.17517,-0.194334 0.03,-0.677669 0.19844,-0.759126 0.0233,-0.0113 0.0508,-0.01701 0.0811,-0.01757 z m -18.87016,0.385506 c 0.006,-1.46e-4 0.0126,-2.2e-5 0.0191,5.29e-4 0.12749,0.01058 0.86304,0.777576 0.92501,0.992187 0.0593,0.205359 0.0732,0.493871 -0.0868,0.635619 -0.0663,0.05843 -0.185,0.0414 -0.2651,0.0041 -0.42948,-0.199914 -0.86688,-0.62856 -0.89866,-1.101225 -0.0134,-0.200599 0.11058,-0.526714 0.30644,-0.531233 z m 18.67069,0.87178 c 0.18292,-0.007 0.59431,0.206016 0.63614,0.301792 0.074,0.169368 0.23631,0.443571 0.0853,0.552937 -0.31342,0.226973 -0.95852,-0.146749 -1.03508,-0.526066 -0.0278,-0.137858 0.13897,-0.27732 0.27234,-0.321945 0.0119,-0.004 0.0259,-0.0061 0.0413,-0.0067 z m -18.67948,0.628386 c 0.35227,-0.01339 0.77174,0.474422 0.73587,0.826307 -0.0143,0.139906 -0.21544,0.223742 -0.35605,0.226859 -0.16001,0.0035 -0.54657,-0.369472 -0.55913,-0.48214 -0.0205,-0.183687 -0.0945,-0.493739 0.0822,-0.553455 0.0315,-0.01066 0.064,-0.01632 0.0971,-0.01757 z m 18.64847,0.320394 c 0.0179,-1e-4 0.0353,0.0013 0.0517,0.0036 0.46942,0.06373 1.01407,0.343445 1.18443,0.785482 0.0746,0.193667 0.0487,0.558244 -0.154,0.603065 -0.1249,0.02765 -1.05443,-0.487236 -1.17719,-0.67386 -0.11747,-0.178577 -0.21624,-0.449744 -0.10542,-0.63252 0.0374,-0.0613 0.12289,-0.08535 0.2005,-0.08578 z m -18.98333,0.467157 c 0.002,-1.22e-4 0.004,-4.3e-5 0.006,0 0.18866,0.0037 0.52335,0.573934 0.60152,0.743106 0.10974,0.2375 -0.22946,0.638193 -0.41445,0.666109 h -5.3e-4 c -0.23438,0.03536 -0.64793,-0.483666 -0.64492,-0.835607 0.002,-0.240956 0.31136,-0.566076 0.45217,-0.573608 z m 15.64762,0.807185 c 0.19426,-0.0037 0.43273,0.05699 0.57103,0.130741 0.45029,0.240131 0.57904,0.851945 0.75861,1.329635 0.25113,0.66806 0.3961,1.38504 0.42684,2.09807 0.0291,0.67551 0.0352,1.39378 -0.23202,2.01486 -0.2033,0.47241 -0.48094,1.24217 -0.99167,1.18184 -0.42177,-0.0498 -0.48538,-0.7237 -0.56948,-1.13998 -0.14127,-0.69929 0.15964,-1.4227 0.13798,-2.13579 -0.0335,-1.10309 -0.42836,-2.675453 -0.41341,-3.284555 0.003,-0.138258 0.14072,-0.191569 0.31212,-0.194821 z m 3.514,0.0021 c 0.23627,-0.02342 0.98207,0.900776 1.06195,1.10381 0.0703,0.178718 -0.17396,0.41453 -0.36328,0.447 -0.2819,0.04838 -0.59376,-0.197276 -0.73226,-0.447519 -0.17723,-0.320228 -0.32426,-0.953979 0.0124,-1.097605 0.007,-0.0028 0.0136,-0.0049 0.0212,-0.0057 z m -18.03611,0.03204 c 0.31132,-0.0075 0.69568,0.288592 0.97565,0.466641 0.602,0.382838 0.9148,1.101129 1.44384,1.579745 0.81839,0.74039 2.22591,1.54576 2.65462,1.97869 0.20759,0.20965 -0.28535,0.58966 -0.56586,0.6811 -0.48519,0.15816 -1.01534,-0.17353 -1.48414,-0.37518 -0.65563,-0.28199 -1.27287,-0.67415 -1.80816,-1.14618 -0.50713,-0.44719 -1.02944,-0.94061 -1.29191,-1.563724 -0.19963,-0.473964 -0.56233,-1.207932 -0.16485,-1.534274 0.0718,-0.05895 0.15364,-0.08473 0.24081,-0.08682 z m -1.02319,1.263491 c 0.21407,-0.0031 0.45136,0.102246 0.60461,0.239261 0.27285,0.243944 0.62039,0.794224 0.34985,1.040764 -0.16771,0.15283 -1.2375,-0.50936 -1.38441,-0.68006 -0.12526,-0.14558 0.0278,-0.449051 0.19585,-0.54209 0.0704,-0.03897 0.15033,-0.05666 0.2341,-0.05788 z m 19.28358,0.532265 c 0.003,-1.1e-4 0.006,-5e-5 0.009,0 0.23699,0.004 0.55758,0.58579 0.49558,0.93224 -0.0431,0.24096 -0.41319,0.51406 -0.54829,0.48834 -0.18537,-0.0353 -0.41951,-0.65313 -0.46819,-0.83302 -0.0673,-0.24859 0.32154,-0.5806 0.51212,-0.58756 z m -19.15749,0.93379 c 0.27581,-0.009 1.0969,0.14425 1.25212,0.26304 0.16975,0.1299 0.3524,0.35315 0.30799,0.56224 -0.0186,0.0864 -0.12427,0.14307 -0.21084,0.16071 -0.46421,0.0945 -1.07068,0.01 -1.37718,-0.3514 -0.13424,-0.15827 -0.22986,-0.511 -0.0532,-0.62012 0.0136,-0.008 0.0417,-0.0132 0.0811,-0.0145 z m 18.39061,0.10129 c 0.0244,-2.5e-4 0.0475,10e-4 0.0692,0.005 0.15834,0.0234 0.47729,0.45629 0.47077,0.56947 -0.0106,0.18452 0.01,0.50251 -0.17414,0.53175 -0.38219,0.0607 -0.78849,-0.56448 -0.68523,-0.93741 0.0317,-0.11435 0.18783,-0.1671 0.31936,-0.16847 z m -3.89641,0.17053 c 0.20983,-0.006 0.51542,0.32942 0.61547,0.54725 0.21301,0.46374 -0.0553,1.02883 -0.20154,1.51774 -0.20458,0.68375 -0.52347,1.34194 -0.93069,1.92805 -0.38579,0.55527 -0.81532,1.13096 -1.40405,1.46348 -0.44781,0.2529 -1.13537,0.69778 -1.50533,0.34054 -0.30552,-0.295 0.0521,-0.86988 0.23719,-1.25212 0.31094,-0.64209 0.98854,-1.03578 1.40302,-1.61644 0.64116,-0.89824 1.27918,-2.38868 1.65984,-2.86442 0.0346,-0.0432 0.0777,-0.0628 0.12609,-0.0641 z m 3.41065,0.64337 c 0.063,-7.9e-4 0.13242,0.0275 0.18241,0.062 0.38987,0.26913 0.74921,0.76481 0.70126,1.2361 -0.021,0.20647 -0.20872,0.52041 -0.4098,0.46871 -0.1239,-0.0318 -0.72008,-0.91181 -0.74517,-1.13378 -0.024,-0.2124 0.0102,-0.49894 0.19172,-0.61185 0.0235,-0.0145 0.0509,-0.0208 0.0796,-0.0212 z m -16.77572,0.21549 c 0.28579,-0.007 0.61775,0.12577 0.74104,0.33383 0.0717,0.121 -0.0397,0.3077 -0.1509,0.39378 -0.12658,0.0979 -0.65983,0.0279 -0.7369,-0.0553 -0.12568,-0.13552 -0.3691,-0.34099 -0.26252,-0.49402 0.0829,-0.11909 0.2378,-0.17397 0.40928,-0.17829 z m 2.0221,0.76585 c 0.12488,-8e-4 0.24626,0.002 0.35243,0.002 0.71339,-0.006 1.36688,0.42589 2.07119,0.5395 1.08952,0.17574 2.70839,0.0856 3.30368,0.21549 0.28825,0.0629 0.0817,0.64965 -0.10387,0.87901 -0.32097,0.39674 -0.94598,0.40754 -1.44901,0.49351 -0.7035,0.12023 -1.43499,0.12691 -2.14096,0.0222 -0.66882,-0.0992 -1.37596,-0.22884 -1.93528,-0.60875 -0.42542,-0.28898 -1.1284,-0.70776 -0.97255,-1.19786 0.0965,-0.30355 0.49972,-0.34247 0.87437,-0.34468 z m -2.05776,0.14263 c 0.23102,-0.006 0.68533,0.19106 0.82321,0.26664 0.22942,0.12577 0.1947,0.64998 0.0625,0.78239 -0.16746,0.16775 -0.80919,-0.004 -1.01595,-0.28887 -0.14381,-0.1981 -0.0837,-0.65425 0.0284,-0.73381 0.024,-0.0171 0.059,-0.0252 0.1018,-0.0264 z m 16.49305,0.12505 c 0.006,6e-5 0.0113,5.3e-4 0.017,0.001 0.22641,0.015 0.49045,1.24495 0.46922,1.46916 -0.0181,0.1912 -0.34252,0.29127 -0.52606,0.23462 -0.2733,-0.0843 -0.44026,-0.44437 -0.45062,-0.73019 -0.0131,-0.36005 0.13733,-0.97842 0.49041,-0.97462 z m -5.54953,0.0413 c 0.22797,0.0141 0.35417,0.53361 0.33073,0.79996 -0.0447,0.50835 -0.55778,0.86631 -0.92708,1.21852 -0.51646,0.49258 -1.11909,0.90652 -1.7632,1.21388 -0.61022,0.29121 -1.26896,0.57852 -1.9451,0.57568 -0.51428,-0.002 -1.3315,0.0435 -1.47588,-0.4501 -0.11923,-0.40762 0.47615,-0.72964 0.82631,-0.96997 0.58821,-0.4037 1.37128,-0.41048 2.019,-0.70952 1.00197,-0.46259 2.29496,-1.44087 2.86132,-1.66553 0.0257,-0.0102 0.0503,-0.0144 0.0739,-0.0129 z m -9.27747,1.31 c 0.0478,-3e-5 0.0943,0.003 0.13849,0.0104 0.36167,0.0562 0.95269,0.32858 0.8599,0.68264 -0.0575,0.21949 -1.31502,0.24671 -1.53118,0.18345 -0.18431,-0.054 -0.22108,-0.39169 -0.13074,-0.5612 0.11349,-0.21298 0.40533,-0.31504 0.66353,-0.31523 z m 13.56661,0.51212 c 0.11893,-2.7e-4 0.22713,0.0232 0.28216,0.0667 0.18592,0.14702 0.0896,0.80411 -0.1695,1.04231 -0.18021,0.16567 -0.6403,0.1591 -0.73226,0.0568 -0.12618,-0.1403 0.0616,-0.77407 0.13178,-0.94672 0.0616,-0.15149 0.28962,-0.2185 0.48782,-0.2191 z m -11.991,0.32659 c 0.008,-2.7e-4 0.0158,-2e-5 0.0227,5.3e-4 0.21311,0.0166 0.48777,0.10479 0.56431,0.30437 0.0314,0.0826 -0.0264,0.18768 -0.0894,0.2496 -0.33801,0.33191 -0.89246,0.59099 -1.34617,0.45475 -0.19876,-0.0597 -0.47173,-0.30377 -0.38293,-0.49144 0.053,-0.11204 0.97165,-0.50887 1.23145,-0.5178 z m 10.7704,0.002 c 0.10765,-0.006 0.23788,0.0631 0.31162,0.13849 0.11188,0.11446 0.10316,0.65232 0.0294,0.73845 -0.12015,0.14046 -0.29615,0.40605 -0.46044,0.31782 -0.34093,-0.18307 -0.28574,-0.92635 0.0222,-1.16066 0.028,-0.0213 0.0613,-0.0321 0.0971,-0.0341 z m -0.73638,0.41444 c 0.0132,-5.3e-4 0.0265,-2.2e-4 0.0398,10e-4 0.088,0.008 0.15647,0.10724 0.18396,0.1912 0.14736,0.45023 0.13334,1.06211 -0.19016,1.40819 -0.14175,0.15158 -0.48156,0.28794 -0.6103,0.12505 -0.0794,-0.10034 -0.0209,-1.16155 0.0935,-1.3534 0.10264,-0.17211 0.28534,-0.36515 0.48318,-0.37207 z m -9.10487,0.20464 c 0.098,-0.002 0.19029,0.0141 0.26613,0.0517 0.12598,0.0625 0.13379,0.28015 0.0873,0.41289 -0.0529,0.15107 -0.53812,0.38179 -0.64802,0.35399 -0.17919,-0.0453 -0.49551,-0.0849 -0.48938,-0.27131 0.01,-0.30216 0.43379,-0.53981 0.78394,-0.54725 z m 8.01553,0.56741 c 0.0769,-0.002 0.14838,0.0198 0.20877,0.0723 0.17114,0.14899 -0.36309,1.28806 -0.51573,1.45366 -0.13017,0.1412 -0.44943,0.0245 -0.56121,-0.13177 -0.16646,-0.23258 -0.0811,-0.62045 0.0837,-0.85421 0.16476,-0.23371 0.50966,-0.53429 0.78445,-0.54002 z m -7.24039,0.16433 c 0.25663,-0.005 0.50435,0.44255 0.46612,0.6227 h -5.2e-4 c -0.0492,0.23187 -0.68026,0.43699 -1.00873,0.31057 -0.22845,-0.0879 -0.427,-0.50317 -0.3762,-0.63096 0.0697,-0.17535 0.72107,-0.28802 0.90692,-0.3018 0.004,-2.6e-4 0.008,-5.2e-4 0.0124,-5.2e-4 z m 3.53209,0.32298 c 0.0842,-0.002 0.16384,0.0159 0.22944,0.062 0.0722,0.051 0.0833,0.17027 0.0656,0.25683 -0.0951,0.46409 -0.41105,0.98879 -0.86351,1.12913 -0.19824,0.0614 -0.56057,0.0115 -0.5917,-0.19379 -0.0192,-0.12647 0.55694,-1.01967 0.75138,-1.12964 0.11628,-0.0658 0.26849,-0.12176 0.40876,-0.12454 z m 0.95859,0.0258 c 0.1317,-8e-4 0.24979,0.16538 0.28371,0.29507 0.0405,0.15485 -0.23333,0.61747 -0.34003,0.65577 -0.17395,0.0625 -0.45808,0.2061 -0.55708,0.0481 -0.20544,-0.32793 0.21017,-0.94641 0.59377,-0.99735 0.007,-8e-4 0.0131,-0.002 0.0196,-0.002 z m -2.39416,0.0816 c 0.20866,0.002 0.38955,0.0636 0.44803,0.231 0.0748,0.2142 -0.95377,0.93895 -1.1684,1.00717 -0.18303,0.0582 -0.40198,-0.20167 -0.42168,-0.39274 -0.0294,-0.2845 0.23609,-0.57881 0.49506,-0.70022 0.17087,-0.0801 0.42486,-0.14697 0.64699,-0.14521 z m 3.34604,0.15297 c 0.22402,-9e-5 0.51125,0.1705 0.56483,0.30334 0.0887,0.21983 -0.32045,0.74259 -0.66353,0.82114 -0.23862,0.0546 -0.63482,-0.1793 -0.66404,-0.31368 -0.0401,-0.18438 0.43695,-0.64133 0.58343,-0.75654 0.0482,-0.0379 0.11074,-0.0542 0.17931,-0.0543 z" />
      <path
         id="path1034-4"
         style="display:inline;fill:#81f0b3;fill-opacity:1;stroke:none;stroke-width:0.264583px;stroke-linecap:butt;stroke-linejoin:miter;stroke-opacity:1"
         d="m 78.03675,98.100225 c -0.03553,-0.341713 -0.10576,-0.684552 -0.164062,-1.018445 -0.150108,-0.859566 -0.36834,-1.721431 -0.74006,-2.510868 -0.559951,-1.189176 -1.320795,-2.296658 -2.205495,-3.268773 -0.653297,-0.71785 -1.426043,-1.335462 -2.250242,-1.848096 -1.004324,-0.624681 -2.084979,-1.176946 -3.232359,-1.464002 -0.725056,-0.181398 -1.492308,-0.20757 -2.237153,-0.145874 -1.048155,0.08684 -2.063626,0.422013 -3.07218,0.720334 -0.639046,0.189023 -1.419036,0.196415 -1.881551,0.676171 -0.179619,0.186326 -0.04799,0.560836 -0.235145,0.739591 -0.339319,0.324085 -0.960072,0.119147 -1.359772,0.364932 -1.073324,0.659961 -2.057612,1.644099 -2.522151,2.815333 -0.121376,0.306129 0.06688,0.671417 -0.02455,0.987766 -0.04241,0.146444 -0.134908,0.277066 -0.234342,0.392622 -0.14348,0.166741 -0.342218,0.215605 -0.509593,0.419073 -0.468742,0.569827 -0.589517,2.646444 -0.587319,4.0818 4.75e-4,0.328095 0.263152,0.581555 0.334222,0.890505 0.02299,0.100026 0.03113,0.204066 0.02865,0.306706 -0.005,0.21952 -0.09615,0.43306 -0.09105,0.65258 0.01397,0.6005 0.125148,1.20711 0.331376,1.77129 0.290401,0.79445 0.696194,1.56953 1.252269,2.20695 0.235834,0.27033 0.620924,0.38138 0.855007,0.65323 0.197299,0.22913 0.229736,0.57511 0.437784,0.79454 0.896908,0.94596 2.062624,1.72415 3.320676,2.0656 0.215625,0.0585 0.450711,-0.0614 0.669881,-0.018 0.252861,0.05 0.491552,0.17216 0.707334,0.31316 0.195604,0.12782 0.285217,0.44661 0.517382,0.47298 1.552581,0.1767 2.85411,0.23996 4.284077,0.1042 0.307191,-0.0287 0.504203,-0.37045 0.795275,-0.47271 0.378018,-0.13282 0.818896,-0.0168 1.190221,-0.16731 0.319006,-0.12927 0.548802,-0.41633 0.833925,-0.60918 0.736332,-0.49802 1.707956,-0.71743 2.261599,-1.41291 0.255536,-0.321 0.148226,-0.84118 0.401984,-1.16358 0.272786,-0.34658 0.822851,-0.38222 1.113865,-0.71365 0.815371,-0.92857 1.314079,-2.14693 1.578693,-3.35402 0.112473,-0.51292 -0.149898,-1.0685 -0.01279,-1.575366 0.06834,-0.25265 0.339746,-0.420383 0.401629,-0.674689 0.08015,-0.329333 0.07919,-0.670064 0.04367,-1.011776 z m -0.479431,-1.31457 c 0.01924,0.153199 -0.09445,0.359321 -0.222502,0.437567 -0.244034,0.149169 -0.624133,0.03667 -0.845333,-0.144658 -0.283062,-0.23202 -0.6544,-0.767209 -0.394691,-1.025129 0.160997,-0.159885 1.258274,0.455582 1.412374,0.619835 0.02874,0.03066 0.04478,0.06951 0.05016,0.112385 z m 0.199254,2.198636 c 0.0044,0.02919 0.006,0.05769 0.0055,0.08522 -0.0048,0.244745 -0.327153,0.572623 -0.464611,0.568443 -0.188607,-0.006 -0.51704,-0.579374 -0.593369,-0.749383 -0.10717,-0.238669 0.236515,-0.635979 0.421799,-0.661885 0.216382,-0.03051 0.580534,0.412594 0.630709,0.757641 z m -0.677018,-3.420313 c 0.01192,0.103948 -0.0089,0.199289 -0.08402,0.250288 -0.105833,0.07185 -1.159993,-0.0628 -1.34305,-0.190818 -0.175169,-0.1225 -0.367408,-0.338283 -0.332011,-0.549077 0.01485,-0.08712 0.118175,-0.14838 0.203912,-0.16972 0.459728,-0.114288 1.069189,-0.05571 1.390898,0.292021 0.07927,0.08573 0.148945,0.233662 0.164275,0.367306 z m 0.08558,4.444622 c 0.01923,0.16767 0.02543,0.35314 -0.107537,0.39649 -0.367903,0.12 -0.867067,-0.432946 -0.823656,-0.817476 0.0158,-0.139739 0.217431,-0.221436 0.358059,-0.22303 0.160046,-0.0018 0.542656,0.37581 0.553997,0.48861 0.0047,0.046 0.01257,0.0995 0.01919,0.155406 z m 0.07887,1.34115 c 0.0016,0.0147 0.0025,0.0296 0.0034,0.0443 0.01164,0.20722 -0.1248,0.54635 -0.331498,0.52687 -0.127362,-0.012 -0.854084,-0.78703 -0.913727,-1.0023 -0.05707,-0.20599 -0.06784,-0.49415 0.09366,-0.63415 0.06691,-0.0577 0.185382,-0.0395 0.265073,-0.001 0.413932,0.19816 0.833019,0.61101 0.883036,1.06662 z m -1.083411,-6.894091 c 0.0047,0.03419 -0.0012,0.06766 -0.0215,0.09965 -0.207305,0.326757 -0.944232,0.218205 -1.155592,-0.105936 -0.0768,-0.117806 0.0267,-0.309763 0.134123,-0.40053 0.122267,-0.103295 0.657537,-0.05555 0.738098,0.02418 0.104685,0.103602 0.286069,0.248425 0.304861,0.382614 z m 0.364856,3.534135 c 0.02464,0.200914 -0.0097,0.382221 -0.153365,0.510881 -0.316379,0.28333 -0.863254,-0.114946 -1.231066,-0.327266 -0.617861,-0.356664 -0.961549,-1.060731 -1.510631,-1.51622 -0.849394,-0.704599 -2.289767,-1.449157 -2.736657,-1.863299 -0.216393,-0.200552 0.259237,-0.60103 0.535564,-0.704409 0.477962,-0.178826 1.022061,0.129129 1.499081,0.310481 0.667113,0.253616 1.30065,0.619276 1.855691,1.067913 0.525848,0.425027 1.069282,0.895648 1.358244,1.506937 0.137361,0.290604 0.342098,0.680133 0.383139,1.014982 z m -0.599411,-4.647056 c 0.02275,0.196428 -0.01926,0.413091 -0.09056,0.468415 -0.149074,0.115685 -0.76725,-0.118156 -0.934355,-0.200649 -0.234605,-0.115809 -0.222745,-0.640596 -0.0964,-0.778548 0.16012,-0.174771 0.80844,-0.03095 1.027234,0.24475 0.05231,0.06594 0.08213,0.163134 0.09405,0.266036 z m 0.836788,9.555562 c 4.36e-4,0.004 6.36e-4,0.008 7.55e-4,0.0114 0.01212,0.19168 -0.292812,0.34126 -0.48297,0.31414 -0.283147,-0.0403 -0.50467,-0.36957 -0.559794,-0.65022 -0.07054,-0.35914 -0.01573,-1.00755 0.348754,-1.04107 0.222453,-0.0201 0.665851,1.11588 0.693245,1.3658 z M 75.147149,92.217522 c 0.01443,0.113386 -0.0062,0.239033 -0.05626,0.321006 -0.149013,0.244123 -0.539002,0.317756 -0.818583,0.257433 -0.357767,-0.07719 -0.931945,-0.383669 -0.818636,-0.731707 0.07024,-0.21576 1.327119,-0.169213 1.539207,-0.09347 0.09043,0.03234 0.139945,0.133348 0.154276,0.246736 z m 0.834583,11.660498 c 0.03012,0.21825 0.0073,0.46837 -0.08763,0.62306 -0.128014,0.20865 -0.572416,0.32841 -0.688815,0.25524 -0.159749,-0.10041 -0.15227,-0.7614 -0.132011,-0.94666 0.02843,-0.26007 0.526225,-0.42877 0.699116,-0.3573 0.106102,0.0439 0.181055,0.22064 0.209356,0.42566 z m -1.137287,-9.986516 c 0.0091,0.07344 0.0015,0.148051 -0.02729,0.22307 -0.152125,0.396528 -0.820839,0.292318 -1.245015,0.271344 -0.712549,-0.03524 -1.339781,-0.504975 -2.036253,-0.659525 -1.077391,-0.239078 -2.698908,-0.24355 -3.285583,-0.407982 -0.28409,-0.07964 -0.0434,-0.653361 0.155225,-0.871494 0.343594,-0.377313 0.968335,-0.35174 1.475525,-0.408185 0.709286,-0.07921 1.440035,-0.04281 2.138681,0.102928 0.661894,0.138061 1.359812,0.30871 1.895987,0.720634 0.344096,0.264376 0.880228,0.632266 0.928731,1.029209 z m 0.717756,7.114356 c 0.05322,0.42696 0.0606,0.8575 -0.0434,1.26709 -0.126583,0.49846 -0.279908,1.3022 -0.793777,1.32283 -0.424363,0.017 -0.592338,-0.63851 -0.740767,-1.03642 -0.249335,-0.66843 -0.06654,-1.43013 -0.199922,-2.13096 -0.206332,-1.084132 -0.842917,-2.575269 -0.923815,-3.179163 -0.03921,-0.292426 0.582873,-0.298222 0.861773,-0.201995 0.482415,0.16643 0.705913,0.750282 0.958272,1.193842 0.352926,0.620338 0.608663,1.30584 0.750999,2.005176 0.05057,0.24847 0.09872,0.50342 0.13063,0.7596 z m -1.396874,-9.684126 c 0.0058,0.04111 -1.72e-4,0.08123 -0.02043,0.118285 -0.06134,0.112255 -1.060403,0.473789 -1.281716,0.443468 -0.21177,-0.02898 -0.480905,-0.132948 -0.545651,-0.336652 -0.02655,-0.08425 0.03691,-0.186036 0.10344,-0.244172 0.356816,-0.311602 0.926057,-0.538058 1.371045,-0.375556 0.15533,0.0567 0.350775,0.233187 0.373306,0.394628 z m 0.804156,13.400936 c 0.0086,0.0644 0.0082,0.11663 -0.0037,0.14238 -0.07716,0.16795 -0.173682,0.47124 -0.355823,0.43133 -0.378004,-0.0828 -0.528616,-0.81294 -0.296497,-1.12256 0.08436,-0.11253 0.300031,-0.0806 0.422105,-0.0108 0.104184,0.0596 0.208279,0.36641 0.233876,0.55966 z M 72.807048,90.669777 c 0.0026,0.01299 0.0029,0.02694 0.0016,0.04139 -0.03526,0.385363 -0.740889,0.625201 -1.076922,0.433309 -0.12211,-0.06972 -0.117443,-0.287402 -0.06332,-0.417207 0.06162,-0.147711 0.559832,-0.349981 0.667924,-0.315802 0.162474,0.05137 0.441484,0.10475 0.470739,0.258275 z m 1.55662,14.931663 c 0.02987,0.22672 0.0076,0.45272 -0.0905,0.64366 -0.09485,0.1846 -0.384302,0.40805 -0.552647,0.28665 -0.103775,-0.0748 -0.338193,-1.11135 -0.280632,-1.32718 0.05508,-0.20653 0.191518,-0.46048 0.401686,-0.49944 0.08694,-0.0159 0.179905,0.06 0.22933,0.13321 0.14487,0.21478 0.256739,0.48946 0.292767,0.7631 z m -0.705101,-4.3262 c 0.03914,0.30784 0.0015,0.64851 -0.0026,0.95149 -0.0097,0.71362 -0.136492,1.43419 -0.367829,2.10934 -0.219167,0.63964 -0.474991,1.31108 -0.950307,1.79195 -0.361538,0.36577 -0.900831,0.98117 -1.354412,0.73877 -0.374559,-0.20018 -0.187894,-0.85071 -0.114435,-1.269 0.123418,-0.70266 0.666888,-1.26646 0.906707,-1.93835 0.370981,-1.03938 0.57685,-2.64796 0.81285,-3.20969 0.114281,-0.272 0.653823,0.038 0.845622,0.26217 0.13477,0.15753 0.197597,0.3527 0.224407,0.56333 z M 72.208362,90.089492 c 0.0043,0.04037 0.0012,0.07444 -0.0097,0.09781 -0.07982,0.170983 -0.736239,0.245493 -0.922577,0.248392 -0.261591,0.0041 -0.491052,-0.468584 -0.441602,-0.649014 0.06267,-0.228601 0.705223,-0.396605 1.025748,-0.251225 0.181127,0.08217 0.33,0.378825 0.348167,0.554013 z m 1.057902,15.860708 c 0.04834,0.37577 -0.09689,1.19698 -0.177785,1.35719 -0.08657,0.17144 -0.425045,0.14629 -0.575296,0.0266 -0.223734,-0.17817 -0.248297,-0.57443 -0.153741,-0.84435 0.12101,-0.34542 0.496218,-0.87693 0.827488,-0.7213 0.04172,0.0196 0.06701,0.0861 0.07933,0.18188 z m -2.12576,-15.200118 c 0.02558,0.395682 -0.577383,0.634083 -0.94222,0.824247 -0.632637,0.329745 -1.410958,0.241896 -2.090041,0.460516 -1.050479,0.338275 -2.451733,1.153482 -3.041067,1.30813 -0.285387,0.07485 -0.36774,-0.541564 -0.306598,-0.830183 0.105766,-0.499239 0.657664,-0.79278 1.066788,-1.09784 0.57214,-0.426629 1.220812,-0.764698 1.897305,-0.992073 0.640912,-0.21541 1.329728,-0.420941 2.000576,-0.336506 0.510263,0.06423 1.326644,0.117839 1.410387,0.625263 0.0023,0.01303 0.004,0.02571 0.0049,0.03839 z M 70.57139,89.15754 c 0.003,0.01929 0.004,0.03779 0.0037,0.05574 -0.0052,0.285964 -0.304377,0.546397 -0.576102,0.635659 -0.347723,0.1142 -0.997998,0.140243 -1.076141,-0.217371 -0.04842,-0.221673 1.059711,-0.817096 1.281013,-0.85892 0.17102,-0.03232 0.339972,0.198461 0.367527,0.384885 z m 0.779354,14.57959 c 0.0013,0.01 0.0023,0.0191 0.0032,0.0282 0.04684,0.50816 -0.393496,0.95202 -0.693887,1.36457 -0.420103,0.57696 -0.939611,1.0923 -1.518393,1.50984 -0.548338,0.39559 -1.145204,0.7961 -1.810958,0.91417 -0.506399,0.0898 -1.302319,0.28058 -1.532604,-0.17926 -0.190171,-0.37975 0.338277,-0.80305 0.639841,-1.10209 0.506576,-0.50234 1.276311,-0.64859 1.860149,-1.05859 0.903145,-0.63424 2.000167,-1.82839 2.517245,-2.15066 0.24257,-0.15117 0.495225,0.37372 0.535412,0.67377 z m 0.355412,3.69435 c 0.03224,0.24503 -0.2447,0.7247 -0.532832,0.84815 -0.225013,0.0964 -0.656724,-0.0627 -0.70949,-0.18967 -0.07244,-0.17424 0.315591,-0.70946 0.439122,-0.84899 0.173423,-0.1959 0.676753,-0.0464 0.776623,0.11187 0.01385,0.0219 0.02261,0.0486 0.02657,0.0786 z M 69.202468,88.724174 c 8.2e-4,0.0059 0.0014,0.01252 0.0016,0.01904 0.0038,0.127861 -0.675663,0.944956 -0.881949,1.030652 -0.197395,0.082 -0.482516,0.128237 -0.641348,-0.01482 -0.06548,-0.05932 -0.06193,-0.179165 -0.03377,-0.262971 0.150379,-0.449225 0.52716,-0.932016 0.993254,-1.016712 0.197824,-0.03586 0.535811,0.05068 0.562314,0.244798 z m 1.231944,18.650396 c 0.02751,0.18096 -0.137917,0.6137 -0.22839,0.66601 -0.159981,0.0926 -0.414203,0.28468 -0.539851,0.1469 -0.260755,-0.28592 0.0381,-0.96895 0.406415,-1.08764 0.133863,-0.0431 0.29118,0.10691 0.350506,0.23444 0.0053,0.0114 0.0089,0.025 0.0116,0.0403 z M 67.710819,88.884038 c 0.0529,0.348533 -0.384687,0.820166 -0.738379,0.824069 -0.140631,0.0015 -0.246535,-0.188941 -0.265436,-0.3283 -0.02196,-0.158557 0.305705,-0.584639 0.41625,-0.609781 0.180223,-0.04101 0.479992,-0.149388 0.559192,0.01948 0.01417,0.0301 0.02339,0.06176 0.02841,0.09461 z m 1.777338,18.566342 c 0.0021,0.0178 0.003,0.0352 0.0018,0.0518 -0.01054,0.47361 -0.227315,1.04623 -0.6474,1.26519 -0.184059,0.0959 -0.549246,0.11113 -0.61656,-0.0852 -0.04156,-0.12101 0.365662,-1.10251 0.537304,-1.24546 0.164248,-0.1368 0.42259,-0.26541 0.616666,-0.17584 0.06511,0.0303 0.09857,0.11253 0.107789,0.18959 z M 66.890625,88.639794 c 3.44e-4,0.002 4.89e-4,0.004 6.74e-4,0.006 0.01723,0.187904 -0.511496,0.584524 -0.67081,0.68121 -0.223662,0.135745 -0.659933,-0.156276 -0.708466,-0.336967 l -5.8e-5,-5.17e-4 c -0.06152,-0.228927 0.40779,-0.69819 0.757839,-0.73475 0.239654,-0.02509 0.59748,0.245773 0.620796,0.384843 z m 0.956394,15.639216 c 0.0258,0.19257 -0.008,0.43638 -0.06574,0.5821 -0.188005,0.47442 -0.781486,0.67111 -1.23597,0.90322 -0.635596,0.32462 -1.331751,0.54926 -2.0368,0.65993 -0.667961,0.10483 -1.380995,0.19161 -2.028172,-0.004 -0.492263,-0.14891 -1.288359,-0.3383 -1.285797,-0.85257 0.0021,-0.4247 0.66457,-0.56363 1.068762,-0.69398 0.678984,-0.21896 1.431628,-0.001 2.137765,-0.10292 1.092338,-0.15725 2.610364,-0.7263 3.21729,-0.77991 0.137721,-0.0126 0.20617,0.1183 0.228663,0.28826 z m 0.392914,3.49195 c 0.0498,0.23215 -0.784705,1.07708 -0.977482,1.17927 -0.169677,0.0899 -0.431453,-0.12627 -0.484993,-0.31074 -0.07977,-0.27467 0.129304,-0.61217 0.362395,-0.7779 0.298283,-0.21211 0.911501,-0.42942 1.092055,-0.11103 0.0038,0.007 0.0065,0.013 0.0083,0.0204 z M 66.181244,89.852717 c 0.04194,0.308552 -0.208592,0.723696 -0.354041,1.021911 -0.312768,0.6412 -0.991354,1.03275 -1.407489,1.612226 -0.64373,0.89641 -1.285822,2.385512 -1.66783,2.860168 -0.184993,0.229836 -0.618003,-0.217275 -0.740377,-0.485733 -0.211684,-0.464343 0.05833,-1.02842 0.206005,-1.51691 0.206535,-0.683158 0.526835,-1.340568 0.935729,-1.925515 0.387366,-0.554172 0.818965,-1.128614 1.40863,-1.459456 0.448533,-0.25163 1.1371,-0.694507 1.50604,-0.336228 0.0666,0.06473 0.101431,0.143158 0.113313,0.22954 z m -1.370488,-0.874726 c 0.02704,0.212387 -0.05087,0.460001 -0.169797,0.627678 -0.211732,0.298536 -0.719471,0.705704 -0.994851,0.464594 -0.170709,-0.149472 0.367063,-1.286902 0.520171,-1.452075 0.130581,-0.140827 0.44933,-0.02284 0.560667,0.133699 0.04666,0.06557 0.07323,0.142996 0.08384,0.226101 z m 1.638194,19.221239 c 4.47e-4,0.003 7.24e-4,0.006 0.001,0.009 0.02266,0.23594 -0.519419,0.61988 -0.870643,0.5972 -0.244287,-0.0158 -0.557238,-0.35281 -0.546872,-0.48993 0.01424,-0.18816 0.601858,-0.49025 0.775138,-0.55884 0.239452,-0.0948 0.613057,0.25426 0.641389,0.44284 z M 63.368163,89.268037 c 0.03994,0.273061 -0.02008,1.106163 -0.120661,1.273748 -0.109999,0.183283 -0.31131,0.389855 -0.524066,0.369224 -0.08794,-0.0088 -0.156128,-0.107395 -0.183385,-0.191434 -0.146069,-0.45065 -0.13026,-1.062774 0.194407,-1.407947 0.14218,-0.151185 0.481931,-0.28583 0.610213,-0.122551 0.0095,0.01261 0.0178,0.03995 0.02352,0.07896 z m 1.966083,18.285493 c 0.003,0.0242 0.0043,0.0473 0.0028,0.0694 -0.0055,0.15997 -0.399762,0.52554 -0.512957,0.53178 -0.184553,0.0102 -0.498213,0.0664 -0.547953,-0.11328 -0.103265,-0.37294 0.472294,-0.84694 0.854466,-0.78624 0.117188,0.0186 0.18715,0.16786 0.203282,0.29841 z m -0.607326,-3.85256 c 0.02954,0.20783 -0.269412,0.54917 -0.474627,0.67308 -0.436866,0.26376 -1.028518,0.0607 -1.530765,-0.0297 -0.70241,-0.12645 -1.392278,-0.36935 -2.020428,-0.70813 -0.595117,-0.32093 -1.215421,-0.68305 -1.611995,-1.23068 -0.301623,-0.41655 -0.820953,-1.04976 -0.507553,-1.45753 0.258797,-0.33674 0.870225,-0.046 1.270835,0.095 0.672975,0.23681 1.14031,0.86587 1.76387,1.21247 0.964605,0.53617 2.517314,1.00265 3.032819,1.32743 0.04681,0.0295 0.07113,0.0701 0.07786,0.11809 z m -0.256018,3.46134 c 0.0079,0.0625 -0.01244,0.13468 -0.04111,0.18823 -0.223603,0.41764 -0.675761,0.83041 -1.149464,0.83572 -0.207522,0.002 -0.540559,-0.14891 -0.511783,-0.35452 0.01767,-0.1267 0.825112,-0.81799 1.042855,-0.86787 0.208358,-0.0477 0.496926,-0.0459 0.62952,0.12174 0.01705,0.0217 0.02639,0.0482 0.03001,0.0767 z M 62.371527,90.517081 c 0.03907,0.283193 -0.05554,0.627979 -0.248438,0.773861 -0.112175,0.08484 -0.310202,-0.0049 -0.408232,-0.105682 -0.111506,-0.114786 -0.101876,-0.652525 -0.02786,-0.738457 0.120539,-0.140104 0.297352,-0.405072 0.46139,-0.316365 0.127651,0.06899 0.199591,0.216743 0.223144,0.386643 z m -0.533746,2.095355 c 0.01482,0.124 0.02569,0.244935 0.03762,0.350422 0.08613,0.708197 -0.269582,1.406093 -0.303322,2.118709 -0.0522,1.102359 0.21931,2.700853 0.157141,3.306959 -0.03011,0.293493 -0.636354,0.15419 -0.885125,-0.0044 -0.430297,-0.274351 -0.511256,-0.89418 -0.653212,-1.384362 -0.198527,-0.685532 -0.287371,-1.411647 -0.26266,-2.124903 0.02341,-0.675741 0.07276,-1.39297 0.387408,-1.991432 0.23934,-0.45521 0.576467,-1.200789 1.080977,-1.101004 0.312472,0.06178 0.396459,0.458068 0.440757,0.830086 z M 61.464805,90.58375 c 0.03192,0.228882 -0.112833,0.70245 -0.172449,0.847951 -0.09918,0.2421 -0.623973,0.26651 -0.770401,0.150028 -0.185507,-0.147557 -0.08696,-0.804514 0.172867,-1.041987 0.180685,-0.165152 0.6407,-0.156695 0.732353,-0.05425 0.01969,0.02193 0.03167,0.0558 0.03767,0.0982 z m 1.729226,16.40262 c 6.05e-4,0.006 7.55e-4,0.0114 9.17e-4,0.017 0.01054,0.22665 -1.181947,0.62725 -1.407133,0.63135 -0.192012,0.004 -0.327908,-0.30763 -0.292243,-0.49637 0.05305,-0.28104 0.39208,-0.4874 0.674924,-0.52983 0.356308,-0.0534 0.987656,0.0265 1.023558,0.37778 z m -0.664792,-5.50972 c 0.01161,0.2281 -0.490419,0.41188 -0.757716,0.41852 -0.510153,0.0127 -0.923505,-0.45688 -1.314995,-0.78426 -0.547491,-0.45784 -1.026532,-1.01014 -1.404329,-1.615611 -0.357941,-0.573628 -0.717461,-1.195917 -0.790623,-1.868083 -0.05581,-0.511257 -0.192858,-1.318177 0.28139,-1.517113 0.391639,-0.164283 0.778528,0.391137 1.056686,0.712071 0.467245,0.539106 0.561984,1.316463 0.931909,1.926465 0.572271,0.943635 1.689661,2.118501 1.976535,2.656031 0.01302,0.0244 0.01996,0.0484 0.02112,0.072 z m -2.344292,-9.071492 c 0.0054,0.04749 0.0076,0.09404 0.0053,0.13878 -0.0152,0.365685 -0.219437,0.983571 -0.581682,0.931158 -0.224561,-0.03247 -0.392928,-1.278965 -0.35437,-1.500853 0.03294,-0.189211 0.364373,-0.263709 0.542963,-0.192981 0.224383,0.08883 0.358594,0.367348 0.387799,0.623892 z m 1.015737,13.538232 c 0.01363,0.11813 0.0025,0.22828 -0.03457,0.28785 -0.125194,0.20128 -0.788947,0.1794 -1.054756,-0.0513 -0.184872,-0.16045 -0.230048,-0.61836 -0.13873,-0.72123 0.125231,-0.14114 0.776089,-0.0258 0.955531,0.0246 0.157453,0.0442 0.249665,0.26324 0.272535,0.46011 z M 59.528618,94.065051 c 0.0012,0.0079 0.0018,0.0157 0.002,0.02262 0.0075,0.213615 -0.04932,0.496457 -0.239026,0.59493 -0.07855,0.04048 -0.189468,-0.0051 -0.258066,-0.06078 -0.367802,-0.298567 -0.687539,-0.820381 -0.603151,-1.286537 0.03698,-0.20421 0.248834,-0.50287 0.445295,-0.435723 0.117276,0.04008 0.614839,0.908299 0.652909,1.165459 z m 1.208387,10.702389 c 0.01806,0.1063 -0.03597,0.24346 -0.102595,0.3252 -0.101161,0.12404 -0.636594,0.17582 -0.730466,0.11231 -0.153063,-0.10361 -0.43675,-0.24865 -0.367541,-0.42181 0.143596,-0.35935 0.888369,-0.38805 1.155792,-0.10838 0.02431,0.0254 0.03879,0.0573 0.0448,0.0927 z m -0.49457,-0.68515 c 0.002,0.0131 0.0032,0.0263 0.0035,0.0397 0.0019,0.0883 -0.08898,0.16753 -0.169325,0.2043 -0.430807,0.19702 -1.040398,0.25184 -1.420631,-0.0307 -0.166559,-0.12381 -0.340233,-0.44615 -0.192853,-0.59238 0.09079,-0.0902 1.151844,-0.1513 1.355344,-0.0592 0.182554,0.0826 0.394904,0.2425 0.424012,0.4383 z m -1.226546,-9.024188 c 0.013,0.09715 0.0074,0.190679 -0.02146,0.270264 -0.04795,0.132196 -0.26334,0.164426 -0.400464,0.133147 -0.156058,-0.03559 -0.439845,-0.491805 -0.424572,-0.604133 0.02488,-0.183156 0.02868,-0.501912 0.214595,-0.51677 0.30137,-0.02402 0.585129,0.37037 0.631881,0.717464 z m 0.336967,8.028518 c 0.01063,0.0762 -0.003,0.14967 -0.04848,0.21558 -0.128804,0.1868 -1.320694,-0.21603 -1.502398,-0.34909 -0.154935,-0.11349 -0.07475,-0.44384 0.06787,-0.57246 0.212399,-0.19156 0.607406,-0.15032 0.858205,-0.0128 0.250736,0.13745 0.588182,0.4464 0.624756,0.71879 z m -0.976961,-7.176046 c 0.03381,0.254433 -0.383069,0.550879 -0.566373,0.533146 l -6e-5,-5.26e-4 c -0.23593,-0.02283 -0.510668,-0.626832 -0.421972,-0.967427 0.06167,-0.236881 0.452006,-0.480853 0.584695,-0.444735 0.182072,0.04955 0.36722,0.684145 0.401798,0.867259 7.17e-4,0.0039 0.0014,0.0079 0.0019,0.01226 z m 0.076,3.546002 c 0.01145,0.08344 0.0026,0.164598 -0.03582,0.234958 -0.04256,0.0775 -0.15984,0.1019 -0.247831,0.094 -0.471837,-0.0423 -1.028719,-0.297313 -1.219018,-0.731145 -0.08329,-0.190075 -0.07442,-0.555727 0.126058,-0.609719 0.123521,-0.03329 1.07581,0.43882 1.206933,0.61966 0.07845,0.108149 0.151162,0.253106 0.169688,0.392175 z m 0.08209,0.955424 c 0.01559,0.13078 -0.136271,0.26679 -0.261319,0.31506 -0.149318,0.0576 -0.63978,-0.16246 -0.689829,-0.26418 -0.08165,-0.16582 -0.256283,-0.43201 -0.110398,-0.548126 0.302765,-0.241 0.964033,0.102476 1.057759,0.477906 0.0016,0.007 0.0035,0.0128 0.0042,0.0192 z m -0.35014,-2.36983 c 0.02146,0.207573 -0.01942,0.394239 -0.179186,0.471161 -0.204437,0.0984 -1.040186,-0.842209 -1.132095,-1.047823 -0.0784,-0.17533 0.155219,-0.422087 0.342864,-0.463145 0.279394,-0.06119 0.601666,0.169559 0.751409,0.413235 0.0988,0.160786 0.193794,0.405651 0.217008,0.626572 z m 0.224027,3.34204 c 0.02525,0.22258 -0.111966,0.52716 -0.237944,0.59533 -0.208469,0.11284 -0.773897,-0.23496 -0.890504,-0.56704 -0.08107,-0.23097 0.106822,-0.65095 0.237068,-0.69508 0.178706,-0.0606 0.686371,0.3621 0.817312,0.4947 0.04308,0.0436 0.0663,0.10395 0.07411,0.17209 z" />
      <path
         style="fill:#16162a;fill-opacity:1;stroke:none;stroke-width:0.264583px;stroke-linecap:butt;stroke-linejoin:miter;stroke-opacity:1"
         d="m 193.45741,99.217799 -4.5201,2.129221 -0.79545,0.011 0.23058,-1.24052 -3.06924,0.77594 -0.35309,-0.33828 0.058,-0.62704 0.90207,-0.263285 -0.0376,-0.58638 -0.66372,-0.194617 0.0499,-0.693356 0.44851,-0.264549 -0.11384,-0.383813 -0.33232,-0.31587 0.0276,-0.602102 0.47941,-0.243948 0.16913,-0.51952 -0.34261,-0.479586 -0.0331,-0.90731 0.57374,-0.04409 0.39212,-0.184679 -0.59379,-0.474525 -0.5862,-1.0844 -0.49675,0.299426 -0.10571,-1.021876 4.51829,-1.88726 0.67836,1.139693 -1.82817,0.853641 1.17547,1.223539 1.64133,2.923231 -0.56994,2.68669 2.48304,-1.158849 z"
         id="path5402" />
      <path
         style="fill:none;stroke:#b8b8ff;stroke-width:0.565;stroke-linecap:butt;stroke-linejoin:miter;stroke-miterlimit:4;stroke-dasharray:none;stroke-opacity:1"
         d="m 185.26845,90.858642 c -3.92825,-9.92317 -1.36191,-11.693496 -1.31161,-20.599219 0.0226,-3.993871 0.42239,-7.970939 0.64141,-12.192402 0.26938,-5.191758 2.03151,-11.589685 -0.81312,-17.49019 -2.91566,-6.04785 -11.19053,-9.391037 -11.69627,-11.27256 -0.50574,-1.881524 2.43262,-2.919873 2.43262,-2.919873"
         id="path5795" />
      <path
         id="path12510"
         style="fill:#81f0b3;fill-opacity:1;stroke:none;stroke-width:0.264583px;stroke-linecap:butt;stroke-linejoin:miter;stroke-opacity:1"
         d="m 174.46118,21.326347 c -0.76498,-0.08755 -1.75396,0.288698 -2.09134,0.980818 -0.27388,0.561839 0.11117,1.28358 0.41858,1.827796 0.38603,0.683406 1.35253,0.928539 1.69447,1.635042 0.25932,0.535801 -0.0861,1.242307 0.17518,1.777151 0.33523,0.686194 0.92838,1.360908 1.66036,1.578716 0.33154,0.09865 0.70451,-0.328033 1.02061,-0.187584 0.39694,0.176363 0.85004,0.70753 0.6842,1.108974 -0.0866,0.209603 -0.61688,-0.116456 -0.66174,0.158081 -0.16159,0.988999 0.44077,1.615818 1.09636,2.385044 0.13315,0.156223 0.31651,0.104719 0.42424,0.222607 0.22683,0.248211 0.13573,0.707777 0.38654,0.931725 0.15657,0.139798 0.39548,0.184349 0.60513,0.174152 0.26892,-0.01307 0.61383,-0.0659 0.75086,-0.297657 0.14651,-0.247785 0.0634,-0.625557 -0.108,-0.856797 -0.12169,-0.164145 -0.41732,-0.103513 -0.55966,-0.250114 -0.41581,-0.428251 -0.91117,-1.104495 -0.68213,-1.655712 0.0589,-0.141853 0.28411,-0.235511 0.42582,-0.176218 0.17649,0.07385 0.0552,0.428125 0.216,0.531752 0.25621,0.165092 0.65299,0.121285 0.91364,-0.03669 0.19909,-0.120658 0.30513,-0.376793 0.34773,-0.605652 0.0461,-0.247597 0.0397,-0.548114 -0.11518,-0.74672 -0.15095,-0.193583 -0.46825,-0.159598 -0.67851,-0.286287 -0.38132,-0.229756 -1.24759,-0.344578 -1.03404,-0.84527 -0.66526,-0.482002 -1.42292,-1.492079 -1.66416,-2.000341 -0.69807,-1.470764 -1.46059,-0.423091 -0.88413,-2.265418 -0.21466,-0.564545 -0.41935,-1.373671 -0.84996,-1.928852 -0.38749,-0.499581 -0.86273,-1.100654 -1.49087,-1.172546 z" />
      <path
         style="fill:#16162a;fill-opacity:1;stroke:none;stroke-width:0.264583px;stroke-linecap:butt;stroke-linejoin:miter;stroke-opacity:1"
         d="m 79.33502,95.662836 c 0.614204,5.48e-4 0.788767,-1.064496 0.761104,-1.678077 -0.02543,-0.564151 -0.457128,-1.054697 -0.835787,-1.473661 -0.344871,-0.381579 -0.786854,-0.687692 -1.258594,-0.89263 -0.498687,-0.216644 -1.252827,0.09184 -1.597721,-0.32848 -0.256885,-0.313067 0.228997,-0.886219 -0.0076,-1.214887 -0.213214,-0.296186 -0.777212,-0.09666 -1.036056,-0.353928 -0.550533,-0.547179 -0.101505,-1.798133 -0.76622,-2.198939 -0.427417,-0.257722 -1.132949,-0.134077 -1.480436,0.224195 -0.583632,0.601746 0.309097,1.921324 -0.300403,2.496854 -0.627609,0.592631 -1.740497,-0.01928 -2.584539,0.161542 -0.186095,0.03987 -0.375544,0.09617 -0.534419,0.200958 -0.780299,0.514638 -1.373517,1.281156 -1.940721,2.024121 -0.219439,0.287437 -0.640259,0.578634 -0.557515,0.930667 0.07001,0.297865 0.485583,0.39027 0.773134,0.494863 1.331855,0.484448 3.135654,-0.372207 4.216699,0.544237 0.231984,0.196662 -0.0051,0.730624 0.263337,0.873546 0.444607,0.236707 0.949152,-0.540994 1.443786,-0.445902 0.396723,0.07627 0.538853,0.762956 0.942838,0.761518 2.476441,-0.0088 3.300242,-0.127067 4.499113,-0.125997 z"
         id="path14167" />
      <path
         style="fill:#81f0b3;fill-opacity:1;stroke:none;stroke-width:0.264583px;stroke-linecap:butt;stroke-linejoin:miter;stroke-opacity:1"
         d="m 184.94278,90.897119 0.11246,1.04558 0.956,0.933125 0.47968,-0.154115 -0.18566,-1.563796 -0.91145,-0.676666 z"
         id="path5623" />
    </g>
    <g
       id="g13078"
       style="display:inline;opacity:1">
      <path
         style="fill:#001cbc;fill-opacity:1;stroke:none;stroke-width:0.264583px;stroke-linecap:butt;stroke-linejoin:miter;stroke-opacity:1"
         d="m 85.840889,19.943023 c -0.256999,0.0071 0.03377,0.53767 0.178057,0.750459 0.477073,0.703547 3.850864,0.919781 5.278903,2.178481 0.500492,0.441143 0.699331,1.313881 1.254943,1.683196 0.64002,0.425421 1.255399,0.342821 2.023832,0.33187 2.639765,-0.03762 5.754186,-0.900528 6.849576,-1.145795 1.18764,-0.265919 3.57908,-1.569095 5.77857,-3.243433 0.31072,-0.236532 -0.62798,-0.612095 -1.01725,-0.581068 -0.38329,0.03055 -0.5792,0.509112 -0.89834,0.723572 -1.21399,0.815803 -2.46012,1.637752 -3.83953,2.124108 -2.293534,0.80866 -4.755492,1.23105 -7.187309,1.253255 -0.241564,0.0022 -0.516449,0.02457 -0.716103,-0.111434 -0.364692,-0.248423 -0.554336,-0.716423 -0.668303,-1.142717 -0.0883,-0.330278 0.275741,-0.81441 0.0069,-1.025607 -0.615203,-0.483295 -3.898339,-1.882227 -7.043946,-1.794887 z"
         id="path8421" />
      <path
         style="fill:#c51313;fill-opacity:1;stroke:none;stroke-width:0.264583px;stroke-linecap:butt;stroke-linejoin:miter;stroke-opacity:1"
         d="m 84.053771,16.80705 c -0.615604,0.01116 -1.313118,0.355482 -1.225768,0.96496 0.04841,0.337774 0.193725,0.568292 0.48666,0.743289 0.546886,0.326706 1.051489,0.730219 1.628484,1.000214 1.085067,0.507738 2.339525,0.600968 3.406344,1.146003 0.942145,0.481339 1.609038,1.431261 2.582987,1.844479 0.954756,0.405075 2.026112,0.479774 3.059792,0.564338 0.866328,0.07087 1.752325,0.107451 2.607188,-0.04989 1.340588,-0.246741 2.542183,-0.993236 3.848492,-1.382613 1.11522,-0.332418 2.25017,-0.605599 3.39559,-0.811105 1.47737,-0.265063 2.97024,-0.596909 4.47018,-0.541633 1.10379,0.04068 1.43488,0.238026 2.52652,0.4063 0.77477,0.119429 2.11491,0.503253 2.88264,0.344756 0.58769,-0.121328 1.51446,-0.18707 1.74261,-0.742093 0.16139,-0.392612 -0.10158,-0.876873 -0.34207,-1.226666 -0.39342,-0.572226 -1.03217,-0.974201 -1.67329,-1.241005 -1.36196,-0.566782 -2.90221,-0.58892 -4.37549,-0.663821 -1.95235,-0.09926 -3.90629,0.168884 -5.85758,0.287098 -1.5798,0.09571 -3.15429,0.279993 -4.735779,0.341769 -1.136394,0.04439 -2.27492,0.05297 -3.41172,0.02061 -1.831934,-0.05215 -3.663506,-0.164055 -5.487133,-0.345952 -1.968659,-0.196363 -3.146436,-0.702234 -5.528657,-0.659038 z"
         id="path7888" />
      <path
         style="fill:#c51313;stroke:none;stroke-width:0.264583px;stroke-linecap:butt;stroke-linejoin:miter;stroke-opacity:1"
         d="m 95.23633,25.977781 -0.163242,1.136801 c 0,0 1.01332,0.256365 1.052227,0.05293 0.03891,-0.203435 0.05866,-1.277981 0.05866,-1.277981 z"
         id="path11177" />
      <path
         style="fill:#c51313;stroke:none;stroke-width:0.264583px;stroke-linecap:butt;stroke-linejoin:miter;stroke-opacity:1"
         d="m 101.0185,26.262452 0.91293,-0.556686 -0.67769,-1.327578 -0.89967,0.692308 z"
         id="path11245" />
      <path
         style="fill:#81f0b3;fill-opacity:1;stroke:none;stroke-width:0.264583px;stroke-linecap:butt;stroke-linejoin:miter;stroke-opacity:1"
         d="m 94.737622,24.76992 0.24713,1.354686 1.656972,0.05789 1.088059,1.702978 c 0,0 2.880397,-0.85803 2.897757,-0.969282 0.0173,-0.111252 -0.10613,-1.575137 -0.10613,-1.575137 l 1.22839,-0.71266 -0.30417,-1.103878 -1.95096,0.562586 -0.707957,1.384443 -0.846229,0.20078 -0.409004,-0.01548 -1.119185,-1.089003 z"
         id="path9846" />
      <rect
         style="fill:#b8b8ff;fill-opacity:1;stroke:none;stroke-width:0.333763"
         id="rect9323"
         width="4.0585518"
         height="34.048836"
         x="86.50901"
         y="51.552696"
         transform="rotate(-15)"
         ry="0.65833098" />
      <path
         style="fill:#81f0b3;fill-opacity:1;stroke:none;stroke-width:0.226468px;stroke-linecap:butt;stroke-linejoin:miter;stroke-opacity:1"
         d="m 101.05897,23.037304 -0.14709,-0.391362 c -0.43954,-0.004 -1.028148,-0.133878 -1.318634,-0.01199 0,0 -4.162422,0.703705 -4.673341,1.216515 -0.164835,0.165445 0.01598,0.394146 0.187887,0.344188 0.02588,-0.0075 0.852427,-0.01707 1.264317,-0.155957 0.369637,-0.124645 0.116834,-0.406098 0.664878,-0.534782 0.380783,-0.08941 1.482129,-0.288157 1.922775,-0.256174 0.428287,0.03108 0.541108,0.195372 0.901909,0.175862 0.933769,-0.05049 0.947689,-0.211304 0.947689,-0.211304 z"
         id="path11313" />
    </g>
    <g
       id="g27995"
       style="opacity:1">
      <circle
         style="fill:#c51313;fill-opacity:1;stroke:none;stroke-width:0.70061;stroke-linejoin:round;stroke-miterlimit:4;stroke-dasharray:0.70061, 0.70061;stroke-dashoffset:0;stroke-opacity:1"
         id="path21807"
         cx="67.249748"
         cy="98.748741"
         r="5.3440995" />
      <circle
         style="fill:#81f0b3;fill-opacity:1;stroke:none;stroke-width:0.665001;stroke-linejoin:round;stroke-miterlimit:4;stroke-dasharray:0.665001, 0.665001;stroke-dashoffset:0;stroke-opacity:1"
         id="path21911"
         cx="66.895523"
         cy="99.381409"
         r="1.1649255" />
    </g>
    <g
       id="g17970"
       style="display:inline;opacity:1">
      <rect
         style="fill:#001cbc;fill-opacity:1;stroke:none;stroke-width:0.665001;stroke-linejoin:round;stroke-miterlimit:4;stroke-dasharray:0.665001, 0.665001;stroke-dashoffset:0;stroke-opacity:0.955403"
         id="rect29215"
         width="5.2664018"
         height="7.7896471"
         x="148.8331"
         y="74.573311"
         ry="0.65833092"
         transform="rotate(-16.745493)" />
      <path
         style="fill:#b8b8ff;fill-opacity:1;stroke:none;stroke-width:0.264583px;stroke-linecap:butt;stroke-linejoin:miter;stroke-opacity:1"
         d="m 169.01763,24.419834 c -0.61258,0.237796 -0.96229,0.962835 -1.58531,1.171729 -0.63816,0.21397 -1.35823,-0.106256 -2.01912,0.02125 -0.8904,0.171786 -2.62321,0.714591 -2.53572,0.985423 0.72032,2.229769 1.36552,3.949166 2.09273,5.883463 0.23843,0.634187 1.85934,-0.23494 2.71828,-0.582718 0.43785,-0.177282 0.83278,-0.456008 1.20199,-0.750671 0.48371,-0.386043 1.06716,-0.747419 1.30823,-1.317408 0.0828,-0.195734 -0.092,-0.451941 0.0117,-0.637455 0.41194,-0.737083 1.75033,-0.613928 2.13284,-1.366706 0.30951,-0.609123 -0.0125,-1.371932 -0.12426,-2.045979 -0.0932,-0.562004 0.0179,-1.326665 -0.45251,-1.648036 -0.76068,-0.519714 -1.89002,-0.04628 -2.74885,0.287108 z"
         id="path17083" />
      <path
         style="fill:#c51313;fill-opacity:1;stroke:none;stroke-width:0.264583px;stroke-linecap:butt;stroke-linejoin:miter;stroke-opacity:1"
         d="m 169.15123,20.622465 c -0.48702,0.108475 -1.0077,0.292791 -1.34189,0.663294 -0.33386,0.370133 -0.54371,0.903596 -0.52135,1.401554 0.0201,0.448017 0.27257,0.887536 0.58017,1.213886 0.29828,0.316463 0.72907,0.494175 1.14181,0.631166 0.54159,0.179758 1.20605,-0.06027 1.69614,0.232034 0.26588,0.158582 0.4746,0.449072 0.54805,0.749819 0.0745,0.305116 -0.19789,0.622153 -0.14279,0.931364 0.066,0.370233 0.27393,0.727484 0.54566,0.987462 0.30385,0.290714 0.70985,0.545156 1.13008,0.560793 0.54922,0.02044 1.13244,-0.238885 1.52734,-0.621139 0.30616,-0.296353 0.40382,-0.757819 0.51983,-1.167818 0.0939,-0.331709 0.0141,-0.70298 0.13684,-1.025106 0.14143,-0.37105 0.42661,-0.671094 0.66834,-0.98613 0.16647,-0.216961 0.26892,-0.565585 0.53685,-0.620378 0.33495,-0.0685 0.62211,0.614434 0.92175,0.449815 0.31,-0.170307 0.17352,-0.705023 0.11865,-1.054438 -0.0837,-0.53274 -0.26997,-1.107707 -0.66499,-1.474818 -0.25344,-0.23553 -0.6924,-0.156523 -0.97488,-0.356295 -0.38675,-0.273513 -0.53707,-0.79717 -0.90468,-1.095915 -0.34748,-0.282387 -0.76093,-0.493569 -1.1889,-0.625216 -0.30288,-0.09317 -0.62791,-0.117543 -0.94462,-0.106923 -0.44567,0.01495 -0.92061,0.03341 -1.31622,0.239174 -0.29923,0.155634 -0.47076,0.483685 -0.71973,0.71123 -0.14537,0.132862 -0.26568,0.315541 -0.45132,0.381284 -0.2829,0.100183 -0.60721,-0.08394 -0.90014,-0.0187 z"
         id="path16949" />
      <circle
         style="fill:none;fill-opacity:0.611115;stroke:#81f0b3;stroke-width:0.465;stroke-miterlimit:4;stroke-dasharray:none;stroke-opacity:1"
         id="path16438"
         cx="169.29251"
         cy="22.638527"
         r="1.5091558" />
    </g>
    <g
       id="g7740"
       style="display:inline;opacity:1">
      <path
         id="path5574"
         style="fill:#ffd3b4;fill-opacity:1;stroke:none;stroke-width:0.999999px;stroke-linecap:butt;stroke-linejoin:miter;stroke-opacity:0.955403"
         d="m 644.5293,117.16992 -24.31641,8.8418 c 0,0 -1.20417,5.68007 -3.24609,7.46875 -2.71246,2.37606 -212.01172,43.92187 -212.01172,43.92187 l -7.16092,-13.79137 -14.71487,3.25043 4.30352,18.47844 -144.90429,166.88086 -2.20118,8.96094 5.08789,9.32422 216.61524,44.2207 27.50976,-17.05664 c 0,0 141.79805,-218.66048 145.2378,-221.73631 3.41521,-3.05387 6.8553,9.90859 6.8553,9.90859 l 24.66862,-9.10587 z m -50.7448,40.23016 c 1.39836,0.26884 2.62642,0.9361 2.22628,2.77636 -0.2495,1.14745 -137.91246,206.83112 -137.91246,206.83112 L 408.67578,191.47461 c 0,0 181.84821,-34.70138 185.10872,-34.07453 z m -203.02473,41.81281 53.71484,179.32227 -16.27149,6.61914 -151.63085,-20.3125 -4.43555,-10.41016 -13.97461,1.86914 -1.4043,-3.70117 z"
         transform="scale(0.26458333)" />
      <path
         style="fill:#001cbc;fill-opacity:1;stroke:none;stroke-width:0.264583px;stroke-linecap:butt;stroke-linejoin:miter;stroke-opacity:1"
         d="m 105.95671,42.520422 0.52121,1.656101 c 0,0 -4.2154,1.39271 -5.01178,1.660793 -0.35906,0.12087 -0.80756,0.151408 -1.13596,-0.0375 -0.3213,-0.18482 -0.576004,-0.571886 -0.590464,-0.942266 -0.009,-0.231618 0.100889,-0.54727 0.322184,-0.616244 2.1044,-0.655907 5.89481,-1.720884 5.89481,-1.720884 z"
         id="path6049" />
      <circle
         style="fill:#81f0b3;fill-opacity:1;stroke:none;stroke-width:0.22633"
         id="path6804"
         cx="100.78767"
         cy="44.937668"
         r="0.65055102" />
    </g>
    <path
       style="display:inline;opacity:1;fill:#001cbc;fill-opacity:1;stroke:none;stroke-width:0.264583px;stroke-linecap:butt;stroke-linejoin:miter;stroke-opacity:1"
       d="m 166.89397,49.019335 c 0.6523,-1.183026 -2.96502,-0.491073 -3.74091,0.614827 -4.11114,5.859667 -24.12441,36.318937 -28.70801,44.002235 -0.47529,0.796702 0.26885,1.24603 1.16536,1.484544 1.33289,0.354606 3.78512,-4.112754 5.77345,-6.919022 5.47522,-9.004699 18.86962,-27.329827 25.51011,-39.182584 z"
       id="path23030" />
    <g
       id="g5539"
       style="display:inline;opacity:1">
      <rect
         style="fill:#81f0b3;fill-opacity:1;stroke:none;stroke-width:0.27528"
         id="rect4200"
         width="3.6097527"
         height="10.605498"
         x="149.10501"
         y="108.94308"
         transform="matrix(0.94594973,-0.32431328,0.32294601,0.94641739,0,0)" />
      <path
         style="display:inline;fill:#c51313;fill-opacity:1;stroke:none;stroke-width:0.264583px;stroke-linecap:butt;stroke-linejoin:miter;stroke-opacity:1"
         d="m 170.49206,49.047085 c 0,0 0.56516,2.712987 0.90778,2.982986 0.75572,0.595554 2.30041,0.574955 3.13148,1.098289 0.92749,0.584045 1.5772,2.328588 1.5772,2.328588 l 3.83563,-1.409813 c 0,0 0.038,-2.349305 -0.73095,-3.43038 -0.64122,-0.901471 -2.79691,-1.380861 -2.79501,-1.789507 0.002,-0.408646 -0.7661,-1.957682 -0.7661,-1.957682 z"
         id="path2803" />
      <path
         style="fill:#81f0b3;stroke:none;stroke-width:0.264583px;stroke-linecap:butt;stroke-linejoin:miter;stroke-opacity:1"
         d="m 174.97868,50.278024 c -0.27716,0.331917 0.29303,1.263727 0.29303,1.263727 l 3.61019,-1.021191 c 0,0 -0.11345,-0.458221 -0.58209,-0.68562 -0.20861,-0.101223 0.56615,-0.121987 0.60037,-0.351317 0.0294,-0.197123 -0.20729,-0.460951 -0.40543,-0.439465 -1.28709,0.139566 -3.16592,0.81454 -3.51607,1.233866 z"
         id="path3583" />
      <path
         style="fill:#001cbc;fill-opacity:1;stroke:none;stroke-width:0.264583px;stroke-linecap:butt;stroke-linejoin:miter;stroke-opacity:1"
         d="m 181.41551,54.425532 c -0.54966,0.530216 -0.16604,1.536911 -0.0435,2.290731 0.3335,2.051655 2.14736,5.423996 2.08704,5.876128 -0.0534,0.400641 -4.45599,1.215734 -4.26015,2.061086 0.18401,0.794265 13.39226,33.559026 14.25689,34.92093 0.24506,0.38601 0.84144,0.317311 1.33062,0.333181 0.44207,0.0143 0.97408,-0.357164 1.11743,0.06126 0.25631,0.748142 1.01115,1.050032 1.57465,1.083872 0.77897,0.0468 1.22913,-0.46278 1.69795,-0.89137 0.41371,-0.378203 0.7158,-0.968614 0.70009,-1.528922 -0.0219,-0.780721 -0.46705,-1.605706 -1.09334,-2.072354 -0.24522,-0.18271 -0.89995,-0.178107 -0.89995,-0.178107 -0.13761,-0.02723 -3.54086,-5.532611 -4.25962,-7.046769 -0.7486,-1.577014 -6.21792,-14.378729 -8.18803,-21.928278 -0.52486,-2.011306 -0.74147,-4.094949 -0.95138,-6.162985 -0.12928,-1.273703 -0.31387,-2.561991 -0.18869,-3.836104 0.064,-0.651554 0.73086,-1.302183 0.47643,-1.905412 -0.27033,-0.640919 -1.13316,-0.863379 -1.80313,-1.050433 -0.49877,-0.139255 -1.1806,-0.385973 -1.55331,-0.02645 z"
         id="path4639" />
      <circle
         style="fill:#81f0b3;fill-opacity:1;stroke:none;stroke-width:0.264583"
         id="path5451"
         cx="197.58673"
         cy="98.633568"
         r="1.0841646" />
    </g>
    <g
       id="g22124"
       style="display:inline;opacity:1">
      <path
         style="fill:none;stroke:#81f0b3;stroke-width:0.264583px;stroke-linecap:butt;stroke-linejoin:miter;stroke-opacity:1"
         d="m 68.326733,92.968789 c 50.017057,1.439624 53.558207,1.886664 53.558207,1.886664"
         id="path20862" />
      <path
         style="fill:none;stroke:#81f0b3;stroke-width:0.264583px;stroke-linecap:butt;stroke-linejoin:miter;stroke-opacity:1"
         d="m 67.310235,104.14142 c 18.446639,5.21251 33.580675,9.5168 51.958365,14.07165"
         id="path20864" />
      <path
         style="fill:none;stroke:#81f0b3;stroke-width:0.665;stroke-linecap:butt;stroke-linejoin:round;stroke-miterlimit:4;stroke-dasharray:0.665, 0.665;stroke-dashoffset:0;stroke-opacity:1"
         d="m 69.107674,93.394138 c 0.0409,-0.03144 52.625096,1.858336 52.494586,1.711094"
         id="path21074" />
      <path
         style="fill:#b8b8ff;stroke:#81f0b3;stroke-width:0.665;stroke-linecap:butt;stroke-linejoin:miter;stroke-miterlimit:4;stroke-dasharray:0.665, 0.665;stroke-dashoffset:0;stroke-opacity:1"
         d="m 68.828852,104.27132 50.743288,13.83194"
         id="path21222" />
      <path
         id="path19694"
         style="fill:#c51313;fill-opacity:1;stroke:none;stroke-width:1.75748;stroke-miterlimit:4;stroke-dasharray:none;stroke-opacity:1"
         d="m 457.70508,357.80469 a 44.956123,44.956123 0 0 0 -44.95703,44.95508 44.956123,44.956123 0 0 0 44.95703,44.95703 44.956123,44.956123 0 0 0 44.95508,-44.95703 44.956123,44.956123 0 0 0 -44.95508,-44.95508 z m 4.23437,5.92969 c 2.62355,-0.009 5.19912,0.32827 7.1875,1.82812 3.3673,2.67529 3.38456,7.8737 0.85938,11.52344 -1.73137,2.73447 -3.66557,5.72509 -6.57422,7.14453 -3.0889,1.50739 -7.16282,2.28962 -10.27734,0.83594 -3.85584,-1.79974 -7.61655,-4.92393 -9.11329,-8.89649 -1.07928,-2.86454 -1.27633,-6.82291 0.70508,-9.15625 2.7888,-3.28413 8.25204,-2.84434 12.55469,-3.06836 1.49236,-0.0777 3.08407,-0.20572 4.6582,-0.21093 z m 22.62891,13.6875 c 0.88637,-0.005 1.74601,0.14701 2.53125,0.5 3.92874,1.76875 5.02121,7.14116 6.42969,11.21289 1.3025,3.76611 3.15579,8.10788 1.73242,11.83007 -1.63657,3.9772 -6.62718,5.43361 -10.83399,4.01954 -3.10737,-0.90509 -6.51695,-1.93327 -8.6875,-4.33399 -2.3049,-2.54986 -4.18533,-6.24908 -3.65234,-9.64453 0.65987,-4.2037 2.61792,-8.68297 6.01953,-11.22266 1.76301,-1.31663 4.19577,-2.3497 6.46094,-2.36132 z m -54.58984,3.74414 c 2.68762,-0.0642 5.49897,1.27518 7.38086,3.49804 2.19031,2.38277 4.57493,5.02744 5.18945,8.20508 0.6525,3.37463 0.34821,7.51117 -1.86524,10.14063 -2.74034,3.25534 -6.73588,6.07578 -10.96093,6.48828 -3.04661,0.29741 -6.92027,-0.54258 -8.65821,-3.0625 -2.44618,-3.54675 -0.59947,-8.70895 0.30274,-12.92188 0.83463,-3.89662 1.49621,-8.56946 4.64062,-11.01758 1.18895,-0.8786 2.5629,-1.29645 3.97071,-1.33007 z m 14.23046,31.32226 c 0.70628,-0.007 1.40737,0.0527 2.09961,0.20117 3.36065,0.72121 7.04698,2.62113 8.59961,5.6875 1.9222,3.79627 2.95276,8.57588 1.67774,12.625 -0.91941,2.91973 -3.20775,6.1553 -6.20703,6.76758 -4.22143,0.86185 -8.24836,-2.85788 -11.77149,-5.33789 -3.25856,-2.29395 -7.29912,-4.73204 -8.32031,-8.58398 -0.99734,-4.18345 2.19781,-8.28361 6.4375,-9.59571 2.38296,-0.84552 4.96195,-1.73745 7.48437,-1.76367 z m 33.56641,0.0156 c 2.48356,-0.004 4.94586,0.47588 7.03906,1.625 2.68332,1.4731 5.40676,4.34908 5.42188,7.41015 0.0189,4.30847 -4.41744,7.53043 -7.53906,10.5 -2.88737,2.74655 -6.06953,6.23096 -10.04688,6.47852 -4.29774,0.15923 -7.69348,-3.77692 -8.15039,-8.19141 -0.46439,-3.20303 -0.94133,-6.73463 0.34375,-9.70508 1.36505,-3.15447 3.95078,-6.39788 7.26172,-7.32031 1.79333,-0.4996 3.73827,-0.79385 5.66992,-0.79687 z"
         transform="scale(0.26458333)" />
    </g>
    <g
       id="g19510"
       style="display:inline;opacity:1">
      <path
         style="fill:#001cbc;fill-opacity:1;stroke:none;stroke-width:0.264583px;stroke-linecap:butt;stroke-linejoin:miter;stroke-opacity:1"
         d="m 119.02895,105.8126 c -0.60861,0.43683 -0.54003,1.59706 -0.15861,2.24185 0.3189,0.53909 1.08875,0.68339 1.70657,0.78641 0.41622,0.0694 0.88501,0.0666 1.25939,-0.12808 6.97652,-3.62757 11.65437,-6.62238 17.44704,-10.774035 0.71373,-0.511538 1.62656,-1.076089 1.78177,-1.940378 0.0883,-0.491873 -0.28342,-0.976224 -0.56644,-1.388099 -0.28633,-0.416695 -0.61326,-0.923091 -1.10551,-1.038476 -0.40683,-0.09536 -0.81757,0.194263 -1.19991,0.362839 -0.93456,0.412051 -1.76082,1.035673 -2.63301,1.567156 -5.54587,3.379457 -10.42074,5.924973 -16.53129,10.310813 z"
         id="path18005" />
      <path
         id="path18215"
         style="fill:#c51313;fill-opacity:0.90046;stroke:none;stroke-width:0.999999px;stroke-linecap:butt;stroke-linejoin:miter;stroke-opacity:1"
         d="m 504.39258,358.57812 c -3.63495,0.63644 -4.25506,10.57827 -0.5957,11.05469 4.98445,0.64894 4.75114,-0.0833 7.12695,-0.10547 9.45734,-0.0882 23.55628,0.45323 28.37305,-0.10937 3.43974,-0.45876 3.3623,-10.09769 -0.0938,-10.41016 -5.30676,-0.4798 -30.93388,-1.10844 -34.8105,-0.42969 z m 20.71875,2.86915 c 0.88358,0.33826 1.94407,1.39766 1.66211,2.30078 -0.69766,2.23463 -4.48072,3.29 -6.6211,2.34179 -1.07973,-0.47833 -1.9145,-2.2201 -1.36914,-3.26757 0.99685,-1.91464 4.31221,-2.14675 6.32813,-1.375 z m -10.25,0.19335 c 0.81791,1.07734 -0.27101,2.97168 -1.30664,3.8418 -1.48921,1.25122 -4.28875,2.16419 -5.76563,0.89844 -1.09989,-0.94265 -0.99182,-3.29371 0.004,-4.3457 1.62223,-1.71372 5.64138,-2.27402 7.06827,-0.39454 z m 15.44336,0.26172 c 1.12778,-1.35796 3.8904,-0.98334 5.29492,0.0859 1.22987,0.93628 2.31256,3.27563 1.30664,4.44922 -1.27711,1.48998 -4.4014,0.5637 -5.83594,-0.77539 -0.93493,-0.87273 -1.58275,-2.77583 -0.76562,-3.75973 z"
         transform="scale(0.26458333)" />
    </g>
  </g>
</svg>
